<?xml version="1.0" standalone="no"?>
<!DOCTYPE svg PUBLIC "-//W3C//DTD SVG 1.1//EN" "http://www.w3.org/Graphics/SVG/1.1/DTD/svg11.dtd" >
<svg xmlns="http://www.w3.org/2000/svg" xmlns:xlink="http://www.w3.org/1999/xlink" version="1.1">
<metadata></metadata>
<defs>
<font id="asapregular" horiz-adv-x="655" >
<font-face units-per-em="2048" ascent="1638" descent="-410" />
<missing-glyph horiz-adv-x="491" />
<glyph horiz-adv-x="0" />
<glyph horiz-adv-x="682" />
<glyph unicode="&#xd;" horiz-adv-x="681" />
<glyph unicode=" "  horiz-adv-x="491" />
<glyph unicode="&#x09;" horiz-adv-x="491" />
<glyph unicode="&#xa0;" horiz-adv-x="491" />
<glyph unicode="!" horiz-adv-x="602" d="M205 41v135q0 45 82 45h35q82 0 81 -45v-135q0 -45 -81 -45h-35q-82 0 -82 45zM229 459v934q0 45 82 45h41q80 0 80 -45l-55 -934q-4 -45 -64 -45h-22q-61 0 -62 45z" />
<glyph unicode="&#x22;" horiz-adv-x="653" d="M102 1368v25q0 45 82 45h21q82 0 82 -45q0 -18 -47 -402q-6 -25 -45 -24h-2q-39 0 -46 24zM365 1368v25q0 45 81 45h21q82 0 82 -45q0 -18 -47 -402q-6 -25 -45 -24h-2q-39 0 -45 24z" />
<glyph unicode="#" horiz-adv-x="1093" d="M27 463v35q0 61 41 61h186l53 301h-166q-41 0 -41 62v34q0 61 41 62h193l63 342q2 16 8.5 24.5t26 14.5t55.5 6h9q57 0 57 -31l-68 -356h244l62 342q2 16 8 24.5t25.5 14.5t56.5 6h10q57 0 57 -31l-63 -356h139q41 0 41 -62v-34q0 -61 -41 -62h-170l-51 -301h155 q41 0 41 -61v-35q0 -61 -41 -62h-188l-63 -360q-6 -25 -22.5 -35t-66.5 -10h-8q-57 0 -57 35q0 8 65 370h-241l-66 -360q-4 -16 -9 -24.5t-24.5 -14.5t-54.5 -6h-8q-57 0 -57 35q0 8 65 370h-155q-41 0 -41 62zM408 559h241l53 301h-241z" />
<glyph unicode="$" horiz-adv-x="1015" d="M72 137q0 25 27.5 68t43.5 43q6 0 49.5 -26.5t120 -55.5t164.5 -31v529q-78 31 -111.5 45t-96 51t-92.5 73.5t-54.5 98t-24.5 137.5q0 150 102.5 248t276.5 117v86q0 32 41 32t41 -32v-82q102 -2 213 -36t111 -81q0 -23 -26 -66t-40 -43q-10 0 -43 18.5t-90 38t-125 21.5 v-477q94 -33 142.5 -55.5t117 -71.5t100 -121.5t31.5 -173.5q0 -174 -104.5 -279.5t-286.5 -121.5v-103q0 -33 -41 -32.5t-41 32.5v101q-162 4 -283.5 54t-121.5 95zM285 1061q0 -80 49 -129t143 -88v440q-90 -16 -141 -72.5t-51 -150.5zM559 141q92 16 148.5 84t56.5 166 q0 88 -53.5 142.5t-151.5 97.5v-490z" />
<glyph unicode="%" horiz-adv-x="1566" d="M123 1110q-1 336 280 336q117 0 199 -75t82 -261q0 -184 -82 -257t-199 -73q-281 0 -280 330zM258 1110q0 -59 7 -101t42 -79t96 -37q150 0 150 217q0 45 -4 78t-17.5 69.5t-46.5 57t-82 20.5q-47 0 -78.5 -20.5t-45 -57t-17.5 -69.5t-4 -78zM330 4q0 10 8 21l764 1382 q20 39 82 39h10q49 0 49 -19q0 -4 -8 -20l-764 -1382q-20 -39 -82 -39h-10q-49 0 -49 18zM883 319q-1 336 280 336q117 0 199 -74.5t82 -261.5q0 -184 -82 -256.5t-199 -72.5q-281 0 -280 329zM1018 319q0 -59 7 -101t42 -79t96 -37q150 0 150 217q0 45 -4 78t-17.5 70 t-46.5 57.5t-82 20.5q-47 0 -78.5 -20.5t-45 -57.5t-17.5 -69.5t-4 -78.5z" />
<glyph unicode="&#x26;" horiz-adv-x="1277" d="M102 416q0 150 78 250t180 127v8q-92 37 -151 114.5t-59 186.5q0 168 113.5 256t299.5 88q174 0 174 -66q0 -18 -12 -59t-33 -41q-2 0 -44 9t-81 9q-76 0 -128 -21.5t-75.5 -58t-32.5 -68.5t-9 -67q0 -92 69.5 -169.5t204.5 -77.5h242l24 215q4 45 66 45h20q61 0 62 -45 v-215h172q41 0 41 -62v-24q0 -61 -41 -62h-172v-401q0 -152 110 -152q35 0 59.5 5t28.5 5q18 0 30.5 -37.5t12.5 -58.5q0 -61 -149 -61q-139 0 -209 88q-145 -88 -334 -88q-80 0 -157.5 23.5t-146.5 71.5t-111 134t-42 199zM281 418q0 -104 50 -171t112.5 -89.5t131.5 -22.5 q129 0 267 76q-4 37 -4 59v418h-250q-150 0 -228.5 -61.5t-78.5 -208.5z" />
<glyph unicode="'" horiz-adv-x="374" d="M102 1368v25q0 45 82 45h21q82 0 82 -45q0 -18 -47 -402q-6 -25 -45 -24h-2q-39 0 -46 24z" />
<glyph unicode="(" horiz-adv-x="616" d="M113 585.5q0 309.5 101 573.5t275 424q20 21 43 21q20 0 41 -15.5t21 -36t-19 -45.5q-139 -164 -217.5 -404.5t-78.5 -516.5q0 -274 78.5 -515t215.5 -407q18 -20 19 -41q0 -16 -18.5 -36.5t-38.5 -20.5q-23 0 -46 22q-174 160 -275 424t-101 573.5z" />
<glyph unicode=")" horiz-adv-x="616" d="M18 -379q0 12 15 31q141 164 223 408.5t82 525.5q0 274 -79 514.5t-216 406.5q-18 20 -18 41q0 16 18.5 37t38.5 21q23 0 45 -23q174 -160 275.5 -424t101.5 -573.5t-101.5 -573.5t-275.5 -424q-20 -20 -43 -20t-44.5 17.5t-21.5 35.5z" />
<glyph unicode="*" horiz-adv-x="763" d="M71.5 1214.5q0.5 22.5 11.5 36t26 13.5q12 0 18 -2l203 -66v215q0 41 41 41t41 -41v-215l202 66q6 2 19 2q14 0 25.5 -13.5t11.5 -33.5q0 -25 -29 -33l-203 -66l148 -203q10 -16 10 -26q0 -14 -15.5 -27.5t-29.5 -13.5q-18 0 -31 18l-149 207l-150 -207q-16 -18 -31 -18 q-14 0 -29.5 13t-15.5 27.5t11 26.5l145 203l-201 66q-29 8 -28.5 30.5z" />
<glyph unicode="+" horiz-adv-x="1146" d="M98 457v14q0 70 41 70h367v366q0 41 61 41h15q61 0 61 -41v-366h365q41 0 41 -62v-14q0 -61 -41 -62h-365v-366q0 -41 -61 -41h-15q-61 0 -61 41v366h-367q-23 0 -32 11.5t-9 42.5z" />
<glyph unicode="," horiz-adv-x="405" d="M25 -207q0 12 18 49q70 139 70 314q0 66 82 65h18q82 0 82 -57q0 -166 -75 -284t-136 -118q-59 0 -59 31z" />
<glyph unicode="-" d="M90 532v21q0 61 41 61h387q41 0 41 -61v-21q0 -61 -41 -61h-387q-41 0 -41 61z" />
<glyph unicode="." horiz-adv-x="405" d="M104 41v135q0 45 82 45h35q82 0 82 -45v-135q0 -45 -82 -45h-35q-82 0 -82 45z" />
<glyph unicode="/" horiz-adv-x="757" d="M-20 -115q0 16 6 31l635 1477q20 47 71 47h8q49 0 50 -41q0 -14 -7 -31l-634 -1477q-20 -47 -68 -47h-8q-53 0 -53 41z" />
<glyph unicode="0" horiz-adv-x="1095" d="M80 716.5q0 360.5 133 545t332 184.5q201 0 335 -184.5t134 -545t-134.5 -544.5t-334.5 -184q-199 0 -332 184t-133 544.5zM254 717q0 -299 84 -440.5t207 -141.5q125 0 210 141.5t85 440.5t-85 440t-210 141q-123 0 -207 -141t-84 -440z" />
<glyph unicode="1" horiz-adv-x="1095" d="M82 1294q0 29 37 39l475 105q25 0 44 -12.5t19 -30.5v-1248h304q41 0 40 -61v-25q0 -61 -40 -61h-832q-41 0 -41 61v25q0 61 41 61h356v1104l-362 -61q-18 0 -29.5 35t-11.5 69z" />
<glyph unicode="2" horiz-adv-x="1095" d="M104 90q0 27 9 35l528 663q92 121 115.5 174.5t23.5 122.5q0 98 -68.5 155.5t-187.5 57.5q-82 0 -150.5 -26.5t-107.5 -52t-49 -25.5q-14 0 -39.5 40t-25.5 62q0 59 129.5 104.5t238.5 45.5q201 0 318.5 -93t117.5 -255q0 -102 -37.5 -187.5t-116.5 -190t-315 -392.5 l-149 -183h590q41 0 41 -61v-23q0 -61 -41 -61h-783q-16 0 -28.5 28.5t-12.5 61.5z" />
<glyph unicode="3" horiz-adv-x="1095" d="M92 104q0 29 26.5 66t45.5 37q2 0 108.5 -36t214.5 -36q70 0 132.5 22.5t112.5 89t50 171.5q0 147 -78.5 208.5t-228.5 61.5h-67q-41 0 -41 62v22q0 61 41 62h59q141 0 206.5 86t65.5 182q0 76 -55 136t-188 60q-82 0 -147.5 -16t-101.5 -33.5t-46 -17.5q-16 0 -42 41 t-26 65q0 43 129 76t238 33q188 0 300.5 -92t112.5 -271q0 -100 -60 -173.5t-151 -108.5v-8q102 -27 180.5 -127.5t78.5 -249.5q0 -113 -42 -199t-111 -134t-146.5 -71.5t-157.5 -23.5q-170 0 -291 37.5t-121 78.5z" />
<glyph unicode="4" horiz-adv-x="1095" d="M37 446q0 18 4 23l674 940q23 29 69 29h33q61 0 62 -45v-904h137q41 0 41 -61v-25q0 -61 -41 -61h-137v-301q0 -45 -62 -45h-47q-61 0 -61 45v301h-623q-16 0 -32.5 37t-16.5 67zM240 489h469v652l-9 4z" />
<glyph unicode="5" horiz-adv-x="1095" d="M96 111q0 29 27 65.5t45 36.5q2 0 102.5 -39t206.5 -39q133 0 225.5 79t92.5 222q0 137 -94.5 209t-274.5 72h-174q-33 0 -45 14t-12 47l34 594q2 61 66 62h545q41 0 41 -62v-24q0 -61 -41 -62h-445l-26 -422h106q90 0 172 -21.5t158 -67.5t121 -133t45 -206 q0 -127 -43 -219t-118 -140t-156 -68.5t-175 -20.5q-160 0 -271.5 40t-111.5 83z" />
<glyph unicode="6" horiz-adv-x="1095" d="M104 506q0 168 56.5 322.5t139.5 262t177 188.5t171 120t122 39q29 0 48.5 -41t19.5 -68q0 -16 -17 -22q-397 -164 -506 -545q117 68 277 67q166 0 278.5 -114.5t112.5 -298.5q0 -190 -126 -308t-316 -118q-215 0 -326 134t-111 382zM276 489q0 -195 79 -273.5t196 -78.5 q96 0 177 71t81 200q0 139 -77.5 206.5t-190.5 67.5q-133 0 -256 -70q-8 -82 -9 -123z" />
<glyph unicode="7" horiz-adv-x="1095" d="M113 1348v24q0 61 41 62h809q12 0 26.5 -37t14.5 -68q0 -10 -5 -22l-606 -1278q-16 -33 -82 -33h-24q-88 0 -88 37q0 4 8 24l592 1229h-645q-41 0 -41 62z" />
<glyph unicode="8" horiz-adv-x="1095" d="M104 414q0 150 59.5 231.5t168.5 132.5q-170 100 -170 314q0 168 109.5 261t279.5 93t281.5 -93t111.5 -261q0 -219 -199 -312q117 -53 181.5 -133t64.5 -233q0 -209 -124 -317.5t-320 -108.5q-195 0 -319 108.5t-124 317.5zM281 414q0 -133 75.5 -206t190.5 -73 t191.5 73t76.5 206q0 43 -9 77.5t-31.5 62.5t-42 46t-58.5 36.5t-62.5 28t-73 27t-69.5 25.5q-188 -111 -188 -303zM334 1092q0 -59 19.5 -101.5t62.5 -72t78.5 -45t101.5 -37.5q176 102 176 256q0 104 -61.5 155t-159.5 51q-96 0 -156.5 -51t-60.5 -155z" />
<glyph unicode="9" horiz-adv-x="1095" d="M113 1018q0 190 126 308t316 118q215 0 325.5 -134t110.5 -382q0 -168 -56 -322.5t-139 -262t-177.5 -188.5t-171 -120t-121.5 -39q-29 0 -48.5 41t-19.5 67q0 16 16 23q397 164 506 545q-117 -68 -276 -68q-166 0 -278.5 115t-112.5 299zM287 1026q0 -139 77.5 -206.5 t190.5 -67.5q133 0 256 69q8 82 8 123q0 195 -78.5 273.5t-195.5 78.5q-96 0 -177 -70.5t-81 -199.5z" />
<glyph unicode=":" horiz-adv-x="405" d="M104 41v135q0 45 82 45h35q82 0 82 -45v-135q0 -45 -82 -45h-35q-82 0 -82 45zM104 895v135q0 45 82 45h35q82 0 82 -45v-135q0 -45 -82 -45h-35q-82 0 -82 45z" />
<glyph unicode=";" horiz-adv-x="405" d="M25 -207q0 12 18 49q70 139 70 314q0 66 82 65h18q82 0 82 -57q0 -166 -75 -284t-136 -118q-59 0 -59 31zM104 895v135q0 45 82 45h35q82 0 82 -45v-135q0 -45 -82 -45h-35q-82 0 -82 45z" />
<glyph unicode="&#x3c;" horiz-adv-x="1146" d="M84 449v34q0 49 51 72l842 356q15 7 31 7q43 0 43 -54v-28q0 -53 -50 -72l-729 -297l729 -299q49 -20 50 -72v-28q0 -53 -43 -54q-16 0 -31 6l-842 357q-51 23 -51 72z" />
<glyph unicode="=" horiz-adv-x="1146" d="M98 281v16q0 61 62 61h827q61 0 62 -61v-16q0 -61 -62 -62h-827q-61 0 -62 62zM98 616v15q0 61 62 61h827q61 0 62 -61v-15q0 -61 -62 -61h-827q-61 0 -62 61z" />
<glyph unicode="&#x3e;" horiz-adv-x="1146" d="M94 66v28q0 49 49 72l729 299l-729 297q-49 18 -49 72v28q0 53 43 53q14 0 31 -6l842 -356q51 -23 51 -72v-35q0 -49 -51 -71l-842 -357q-16 -6 -31 -6q-43 0 -43 54z" />
<glyph unicode="?" horiz-adv-x="911" d="M98 1329q0 49 115 83t238 34q197 0 308 -99.5t111 -244.5q0 -76 -38.5 -148.5t-95 -131t-115 -115t-103.5 -122t-53 -130.5q-6 -41 -68 -41h-30q-61 0 -62 47q0 150 176 325q70 70 100.5 104t62.5 89t32 102q0 213 -258 213q-78 0 -164 -34.5t-90 -34.5q-14 0 -40 41 t-26 63zM279 41v135q0 45 81 45h35q82 0 82 -45v-135q0 -45 -82 -45h-35q-82 0 -81 45z" />
<glyph unicode="@" horiz-adv-x="1994" d="M172 485q0 403 266.5 681t655.5 278q309 0 495.5 -182.5t186.5 -483.5q0 -283 -121 -475t-309 -192q-92 0 -147.5 49t-55.5 121v14q-100 -184 -277 -184q-49 0 -96 17t-95 55t-77 116t-29 184q0 244 119 397.5t313 153.5q131 0 228 -96q4 12 11 31.5t10 27t9.5 16.5 t16.5 12t24 3h13q45 0 45 -43q-68 -631 -68 -680q0 -86 82 -86q115 0 204 169t89 390q0 260 -157.5 418t-413.5 158q-342 0 -576.5 -252t-234.5 -617q0 -291 153.5 -472t403.5 -181q119 0 214 29.5t101 29.5q29 0 29 -47q0 -53 -116 -77.5t-228 -24.5q-297 0 -482.5 206 t-185.5 537zM719 494q0 -258 180 -258q70 0 141.5 67t122.5 221q27 274 39 314q-84 70 -188 69q-295 0 -295 -413z" />
<glyph unicode="A" horiz-adv-x="1255" d="M25 31q0 10 6 28l485 1346q10 33 82 33h59q72 0 82 -33l486 -1348q6 -14 6 -26q0 -35 -88 -35h-17q-72 0 -82 33l-120 336h-602l-117 -336q-10 -33 -82 -33h-10q-88 0 -88 35zM379 520h489l-215 610q-10 33 -24 119h-4q-16 -82 -31 -119z" />
<glyph unicode="B" horiz-adv-x="1214" d="M199 61v1311q0 61 61 62h367q223 0 340.5 -98.5t117.5 -264.5q0 -102 -67.5 -194.5t-157.5 -116.5v-8q12 -2 31.5 -9.5t69 -34t87 -60.5t68.5 -97.5t31 -138.5q0 -412 -535 -412h-352q-61 0 -61 61zM379 156h299q135 0 209 70.5t74 193.5q0 115 -81 177t-237 62h-264 v-503zM379 815h237q123 0 203 69.5t80 170.5q0 115 -69.5 169t-221.5 54h-229v-463z" />
<glyph unicode="C" horiz-adv-x="1267" d="M117 719q0 727 663 727q147 0 269 -42t122 -85q0 -29 -25.5 -74t-43.5 -45q-4 0 -44 22.5t-114 45t-160 22.5q-248 0 -364.5 -137t-116.5 -438q0 -295 116 -433.5t357 -138.5q92 0 174 26t127 51.5t51 25.5q18 0 45 -45t27 -66q0 -47 -128 -97t-296 -50 q-338 0 -498.5 177t-160.5 554z" />
<glyph unicode="D" horiz-adv-x="1423" d="M199 61v1311q0 61 61 62h414q287 0 460 -171t173 -546q0 -377 -173 -547t-460 -170h-414q-61 0 -61 61zM379 156h280q207 0 334 135t127 426q0 289 -127 425t-334 136h-280v-1122z" />
<glyph unicode="E" horiz-adv-x="1118" d="M199 61v1311q0 61 61 62h715q41 0 41 -62v-33q0 -61 -41 -61h-596v-467h534q41 0 41 -61v-33q0 -61 -41 -62h-534v-499h598q41 0 41 -62v-33q0 -61 -41 -61h-717q-61 0 -61 61z" />
<glyph unicode="F" horiz-adv-x="1030" d="M199 41v1331q0 61 61 62h645q41 0 41 -62v-33q0 -61 -41 -61h-526v-467h489q41 0 41 -61v-33q0 -61 -41 -62h-489v-614q0 -45 -82 -45h-16q-82 0 -82 45z" />
<glyph unicode="G" horiz-adv-x="1376" d="M117 707q0 739 663 739q147 0 269 -42t122 -85q0 -29 -25.5 -74t-43.5 -45q-4 0 -44 22.5t-114 45t-160 22.5q-260 0 -370.5 -143t-110.5 -424q0 -580 459 -580q162 0 264 27v414h-240q-41 0 -41 61v33q0 61 41 61h359q61 0 61 -61v-543q0 -147 -456 -147 q-633 0 -633 719z" />
<glyph unicode="H" horiz-adv-x="1501" d="M199 41v1352q0 45 82 45h16q82 0 82 -45v-580h741v580q0 45 82 45h17q82 0 81 -45v-1352q0 -45 -81 -45h-17q-82 0 -82 45v616h-741v-616q0 -45 -82 -45h-16q-82 0 -82 45z" />
<glyph unicode="I" horiz-adv-x="577" d="M199 41v1352q0 45 82 45h16q82 0 82 -45v-1352q0 -45 -82 -45h-16q-82 0 -82 45z" />
<glyph unicode="J" horiz-adv-x="823" d="M12 53q0 20 12.5 66.5t32.5 46.5q2 0 46 -9.5t83 -9.5q152 0 219.5 59.5t67.5 192.5v994q0 45 82 45h16q82 0 82 -45v-973q0 -432 -434 -432q-207 0 -207 65z" />
<glyph unicode="K" horiz-adv-x="1179" d="M199 41v1352q0 45 82 45h16q82 0 82 -45v-627h8l504 643q23 29 110 29h21q72 0 72 -27q0 -18 -21 -41l-512 -639l621 -674q18 -20 18 -32q0 -29 -90 -29h-25q-88 0 -112 27l-586 659h-8v-641q0 -45 -82 -45h-16q-82 0 -82 45z" />
<glyph unicode="L" horiz-adv-x="991" d="M199 61v1332q0 45 82 45h16q82 0 82 -45v-1237h563q41 0 41 -62v-33q0 -61 -41 -61h-682q-61 0 -61 61z" />
<glyph unicode="M" horiz-adv-x="1726" d="M184 41v1352q0 45 82 45h74q66 0 86 -37l387 -672l53 -129l54 117l387 684q20 37 86 37h67q82 0 82 -45v-1352q0 -45 -82 -45h-14q-82 0 -82 45v1102l-4 -8l-408 -709q-14 -27 -45 -27h-82q-31 0 -45 27l-413 721l-5 8v-1114q0 -45 -81 -45h-15q-82 0 -82 45z" />
<glyph unicode="N" horiz-adv-x="1472" d="M184 41v1352q0 45 82 45h43q57 0 86 -39l654 -987l61 -115v1096q0 45 82 45h14q82 0 82 -45v-1352q0 -45 -82 -45h-41q-53 0 -71 29l-676 1019l-56 105v-1108q0 -45 -81 -45h-15q-82 0 -82 45z" />
<glyph unicode="O" horiz-adv-x="1497" d="M117 720.5q0 358.5 160.5 542t470 183.5t471 -183.5t161.5 -542t-161.5 -545.5t-470.5 -187q-307 0 -469 187t-162 545.5zM303 721q0 -283 113.5 -430.5t331 -147.5t332 147.5t114.5 430.5q0 281 -114.5 425t-332 144t-331 -144.5t-113.5 -424.5z" />
<glyph unicode="P" horiz-adv-x="1167" d="M174 41v1331q0 61 62 62h415q78 0 147.5 -15.5t144.5 -54.5t120 -124t45 -208q0 -106 -36 -187t-86 -124t-115.5 -69.5t-111.5 -34t-87 -7.5h-318v-569q0 -45 -82 -45h-16q-82 0 -82 45zM354 766h320q37 0 74.5 11t78.5 38t68 83t27 134q0 137 -82 191.5t-195 54.5h-291 v-512z" />
<glyph unicode="Q" horiz-adv-x="1497" d="M117 711q0 360 162 547.5t469 187.5q309 0 470.5 -188.5t161.5 -546.5q0 -291 -105.5 -469.5t-305.5 -231.5v-8l403 -127q29 -10 29 -31q0 -29 -27.5 -88t-58.5 -59q-16 0 -364.5 137t-446.5 178q-387 154 -387 699zM303 711q0 -279 116 -426.5t329 -147.5 q215 0 330.5 148.5t115.5 425.5q0 279 -116.5 429t-329.5 150t-329 -149.5t-116 -429.5z" />
<glyph unicode="R" horiz-adv-x="1249" d="M199 41v1331q0 61 61 62h344q246 0 370 -87t124 -276q0 -252 -236 -346v-8q59 -20 99 -79.5t86 -176.5l159 -404q6 -18 6 -28q0 -33 -86 -33h-20q-70 0 -82 33l-156 401q-45 117 -112.5 159t-192.5 42h-184v-590q0 -45 -82 -45h-16q-82 0 -82 45zM379 786h270 q109 0 185.5 75t76.5 177q0 121 -73.5 180.5t-202.5 59.5h-256v-492z" />
<glyph unicode="S" horiz-adv-x="1024" d="M76 137q0 25 27.5 68t43.5 43q6 0 51.5 -25.5t127.5 -52.5t174 -27q119 0 193.5 66.5t74.5 175.5q0 47 -19.5 87t-41 63.5t-74.5 51t-79 39t-95 38.5q-72 29 -107 43t-92 50t-85 72.5t-50.5 98t-22.5 139.5q0 168 125 273.5t330 105.5q100 0 215 -37t115 -88 q0 -23 -25.5 -66t-40.5 -43q-8 0 -43 19.5t-94 39t-131 19.5q-119 0 -191.5 -61.5t-72.5 -169.5q0 -41 15 -75t31.5 -53.5t60.5 -43t63.5 -31.5t81.5 -31q18 -6 26 -10q72 -27 113 -45t100.5 -56t92 -78t57 -105.5t24.5 -145.5q0 -184 -122.5 -290.5t-331.5 -106.5 q-168 0 -296 51t-128 98z" />
<glyph unicode="T" horiz-adv-x="1124" d="M41 1339v33q0 61 41 62h960q41 0 41 -62v-33q0 -61 -41 -61h-387v-1237q0 -45 -82 -45h-16q-82 0 -82 45v1237h-393q-41 0 -41 61z" />
<glyph unicode="U" horiz-adv-x="1458" d="M170 459v934q0 45 82 45h16q82 0 82 -45v-940q0 -135 107.5 -222.5t271.5 -87.5t271.5 87t107.5 223v940q0 45 82 45h16q82 0 82 -45v-934q0 -223 -145.5 -347t-413.5 -124q-270 0 -414.5 124t-144.5 347z" />
<glyph unicode="V" horiz-adv-x="1263" d="M43 1403q0 35 88 35h19q72 0 81 -33l379 -1094l21 -106h6l22 108l379 1092q10 33 82 33h13q88 0 88 -35q0 -10 -7 -29l-469 -1345q-10 -33 -81 -33h-64q-72 0 -82 33l-469 1347q-6 16 -6 27z" />
<glyph unicode="W" horiz-adv-x="1806" d="M31 1403q0 35 88 35h20q74 0 82 -33l260 -1008q6 -25 15.5 -70.5t15.5 -81.5t6 -38l49 196l248 1000q8 35 80 35h33q72 0 80 -35l254 -1008l34 -188l50 194l247 1004q8 33 82 33h13q88 0 88 -35q0 -4 -7 -29l-354 -1345q-8 -33 -82 -33h-84q-74 0 -82 33l-223 833 l-43 266l-43 -266l-223 -833q-8 -33 -82 -33h-84q-74 0 -82 33l-350 1345q-6 25 -6 29z" />
<glyph unicode="X" horiz-adv-x="1251" d="M41 31q0 14 16 37l459 680l-410 618q-16 23 -16 37q0 35 94 35h29q68 0 88 -31l328 -494l338 496q18 29 88 29h12q94 0 94 -35q0 -8 -16 -37l-410 -608l461 -690q16 -23 16 -37q0 -35 -94 -35h-33q-68 0 -88 31l-376 563l-381 -565q-18 -29 -88 -29h-17q-94 0 -94 35z " />
<glyph unicode="Y" horiz-adv-x="1144" d="M37 1403q0 35 94 35h23q68 0 88 -31l336 -504l344 506q18 29 92 29h14q80 -2 80 -35q0 -8 -16 -37l-430 -637v-688q0 -45 -82 -45h-17q-82 0 -82 45v694l-428 631q-16 23 -16 37z" />
<glyph unicode="Z" horiz-adv-x="1261" d="M78 109q0 14 6 24l840 1145h-738q-41 0 -41 70v16q0 70 41 70h938q12 0 28.5 -39t16.5 -70q0 -14 -6 -25l-839 -1144h800q41 0 41 -70v-16q0 -70 -41 -70h-997q-14 0 -31.5 39t-17.5 70z" />
<glyph unicode="[" horiz-adv-x="595" d="M184 -221v1732q0 61 62 62h248q41 0 41 -60v-10q0 -59 -41 -59h-158v-1600h158q41 0 41 -59v-8q0 -59 -41 -60h-248q-61 0 -62 62z" />
<glyph unicode="\" horiz-adv-x="739" d="M10 1397q0 41 49 41h9q51 0 71 -47l586 -1360q6 -14 6 -31q0 -41 -53 -41h-8q-47 0 -68 47l-586 1360q-6 14 -6 31z" />
<glyph unicode="]" horiz-adv-x="595" d="M61 -215q0 59 41 59h158v1600h-158q-41 0 -41 59v10q0 59 41 60h248q61 0 62 -62v-1732q0 -61 -62 -62h-248q-41 0 -41 60v8z" />
<glyph unicode="^" horiz-adv-x="921" d="M109 698q0 14 6 29l256 633q14 41 69 41h41q51 0 70 -41l256 -633q6 -14 6 -29q0 -43 -55 -43h-8q-53 0 -72 47l-217 535l-219 -535q-20 -47 -70 -47h-8q-55 0 -55 43z" />
<glyph unicode="_" horiz-adv-x="1093" d="M-43 -225q0 41 41 41h1098q41 0 41 -41v-17q0 -41 -41 -41h-1098q-41 0 -41 41v17z" />
<glyph unicode="`" d="M152 1473q0 26 98 26q96 0 127 -53q119 -207 119 -227.5t-47 -20.5q-72 0 -105 37q-180 207 -188 221q-4 8 -4 17z" />
<glyph unicode="a" horiz-adv-x="1116" d="M100 295q0 84 27 147.5t81 102.5t112.5 64.5t145.5 36.5t153.5 15.5t160.5 6.5v96q0 172 -225 172q-82 0 -156.5 -21.5t-116.5 -43t-46 -21.5q-20 0 -46 41t-26 61q0 43 120 87t265 44q190 0 296.5 -85t106.5 -236v-459q0 -47 2 -90t6.5 -70.5t8.5 -49t6 -34t2 -14.5 q0 -25 -39 -36t-72 -11q-10 0 -18 4t-15.5 14.5t-11.5 19.5t-8 25.5t-7 25.5t-6 28.5t-5 25.5q-138 -153 -341 -153h-3q-158 0 -254.5 77.5t-96.5 229.5zM285 305q0 -168 174 -168q100 0 173 37t148 105v241q-76 0 -112.5 -2t-108.5 -7t-109.5 -19.5t-81.5 -37t-63.5 -60.5 t-19.5 -89z" />
<glyph unicode="b" horiz-adv-x="1165" d="M174 41v1454q0 45 82 45h8q82 0 82 -45v-516q135 104 293 104q188 0 302 -143t114 -403q0 -244 -107.5 -396.5t-290.5 -152.5q-178 0 -325 153q-10 -61 -33 -121q-10 -24 -52 -24h-3h-8q-61 0 -62 45zM346 279q129 -141 277 -142q121 0 186 107.5t65 306.5 q0 375 -274 381q-143 0 -254 -92v-561z" />
<glyph unicode="c" horiz-adv-x="993" d="M106 541q0 154 42 264t114 168.5t153 84t177 25.5q119 0 213 -28.5t94 -65.5q0 -27 -23.5 -68.5t-41.5 -41.5q-2 0 -11 2q-2 2 -5 3t-7 3q-111 49 -223 49q-297 0 -297 -391q0 -217 72.5 -313.5t244.5 -96.5q125 0 232 53q6 2 14 7q6 2 8 3q20 0 45 -40.5t25 -65.5 q0 -37 -96.5 -70.5t-225.5 -33.5q-254 0 -379 131t-125 422z" />
<glyph unicode="d" horiz-adv-x="1157" d="M106 535q0 262 114 405t302 143q158 0 293 -104v516q0 45 82 45h8q82 0 82 -45v-1192q0 -47 2 -90t6 -70.5t8.5 -49t6.5 -34t2 -14.5q0 -25 -39 -36t-72 -11q-10 0 -18.5 4t-15.5 14.5t-11 19.5t-8 25.5t-7 25.5t-6.5 28.5t-5.5 25.5q-146 -153 -323 -153h-2 q-182 0 -290 152.5t-108 394.5zM287 551q0 -199 65.5 -306.5t186.5 -107.5q147 0 276 142v561q-111 92 -252 92q-276 -6 -276 -381z" />
<glyph unicode="e" horiz-adv-x="1103" d="M113 528q0 272 120.5 413.5t356.5 141.5q209 0 315.5 -136t106.5 -398q0 -18 -24.5 -51t-43.5 -33h-647q12 -170 88 -250t227 -80q78 0 147.5 21.5t108.5 43t43 21.5q20 0 46 -41t26 -61q0 -41 -111.5 -86t-257.5 -45q-256 0 -378.5 133t-122.5 407zM297 612h532 q1 324 -245 324q-264 0 -287 -324z" />
<glyph unicode="f" horiz-adv-x="665" d="M98 985v25q0 61 41 61h82v195q0 86 25.5 146.5t68.5 87t84 37.5t86 11q150 0 150 -61q0 -20 -12.5 -58t-30.5 -38q-4 0 -28.5 5t-59.5 5q-53 0 -82 -30t-29 -122v-178h178q41 0 41 -61v-25q0 -61 -41 -61h-178v-883q0 -45 -82 -45h-8q-82 0 -82 45v883h-82q-41 0 -41 61z " />
<glyph unicode="g" horiz-adv-x="1118" d="M94 -180q0 90 51.5 155.5t135.5 100.5l2 4q-82 66 -82 168q0 133 114 213q-86 43 -131 118.5t-45 170.5q0 145 107 239t297 94q66 0 121 -12h372q41 0 41 -61v-25q0 -61 -41 -61q-86 0 -143 6l-2 -4q53 -76 53 -176q0 -147 -105.5 -241.5t-297.5 -94.5q-96 -4 -145.5 -36 t-49.5 -106q0 -27 8 -48t30 -35.5t39 -23.5t56 -17.5t58.5 -11.5t69.5 -8t69 -7q70 -8 116 -20.5t95 -38t73.5 -72.5t24.5 -115q0 -150 -118.5 -229.5t-348.5 -79.5q-424 0 -424 254zM248 -147q0 -147 293 -148q280 0 280 151q0 54 -49 83.5t-110.5 38t-147.5 17.5t-131 23 q-135 -57 -135 -165zM297 748q0 -197 244 -197q246 0 245 197q1 198 -245 198q-244 0 -244 -198z" />
<glyph unicode="h" horiz-adv-x="1157" d="M188 41v1454q0 45 82 45h9q82 0 81 -45v-553q141 141 314 141q57 0 107 -13t102.5 -47t84 -103.5t31.5 -167.5v-711q0 -45 -81 -45h-9q-82 0 -82 45v694q0 92 -53 145.5t-156 53.5q-68 0 -132 -36t-95 -71l-31 -36v-750q0 -45 -81 -45h-9q-82 0 -82 45z" />
<glyph unicode="i" horiz-adv-x="542" d="M178 1374v121q0 45 82 45h25q82 0 82 -45v-121q0 -45 -82 -45h-25q-82 0 -82 45zM186 41v989q0 45 82 45h8q82 0 82 -45v-989q0 -45 -82 -45h-8q-82 0 -82 45z" />
<glyph unicode="j" horiz-adv-x="565" d="M-35 -373q0 20 12.5 58.5t30.5 38.5q4 0 28.5 -5.5t59.5 -5.5q111 0 111 152v1165q0 45 82 45h8q82 0 82 -45v-1182q0 -158 -81 -220t-183 -62q-150 0 -150 61zM199 1374v121q0 45 82 45h24q82 0 82 -45v-121q0 -45 -82 -45h-24q-82 0 -82 45z" />
<glyph unicode="k" horiz-adv-x="1067" d="M193 41v1454q0 45 81 45h9q82 0 82 -45v-915h8l391 467q22 28 102 28h6h9q71 0 71 -25q0 -19 -20 -42l-381 -451l422 -500q18 -20 18 -32q0 -29 -90 -29h-8q-88 0 -111 27l-409 485h-8v-467q0 -45 -82 -45h-9q-82 0 -81 45z" />
<glyph unicode="l" horiz-adv-x="608" d="M168 270v1225q0 45 82 45h8q82 0 82 -45v-1208q0 -152 111 -152q35 0 59.5 5t28.5 5q18 0 30.5 -37.5t12.5 -58.5q0 -61 -150 -61q-102 0 -183 62.5t-81 219.5z" />
<glyph unicode="m" horiz-adv-x="1736" d="M150 1018q0 25 38.5 36t71.5 11q10 0 18.5 -4t15.5 -13.5t11 -18.5t8 -24.5t7.5 -24.5t6.5 -26.5t5 -23.5q132 153 309 153h2q223 0 293 -170q144 170 326 170q57 0 107 -13t101.5 -47t82 -103.5t30.5 -167.5v-711q0 -45 -82 -45h-8q-82 0 -82 45v694q0 92 -50 145.5 t-147 53.5q-131 0 -251 -143q2 -14 2 -41v-709q0 -45 -82 -45h-9q-82 0 -81 45v694q0 92 -50.5 145.5t-146.5 53.5q-66 0 -128 -35t-91 -72l-31 -34v-752q0 -45 -82 -45h-8q-82 0 -82 45v719q0 47 -2 90t-6 70.5t-8 49t-6 34t-2 14.5z" />
<glyph unicode="n" horiz-adv-x="1140" d="M152 1018q0 25 38.5 36t71.5 11q10 0 18.5 -4t15.5 -13.5t11 -18.5t8 -24.5t7.5 -24.5t6.5 -26.5t5 -23.5q137 153 319 153q156 0 245 -88t89 -243v-711q0 -45 -82 -45h-8q-82 0 -82 45v694q0 94 -54 146.5t-155 52.5q-147 0 -258 -143v-750q0 -45 -82 -45h-8 q-82 0 -82 45v719q0 47 -2 90t-6 70.5t-8 49t-6 34t-2 14.5z" />
<glyph unicode="o" horiz-adv-x="1165" d="M113 530q0 266 123 409.5t352 143.5q225 0 345 -142t120 -411q0 -266 -118 -404t-347 -138q-231 0 -353 139t-122 403zM293 535q0 -205 69.5 -302.5t219 -97.5t221 97.5t71.5 302t-71.5 303t-221 98.5t-219 -97.5t-69.5 -303.5z" />
<glyph unicode="p" horiz-adv-x="1173" d="M152 1018q0 25 38.5 36t71.5 11q10 0 18.5 -4t15.5 -13.5t11 -18.5t8 -24.5t7.5 -24.5t6.5 -26.5t5 -23.5q147 153 325 153q186 0 292 -152.5t106 -395.5q0 -260 -114 -403.5t-302 -143.5q-158 0 -293 104v-473q0 -45 -82 -45h-8q-82 0 -82 45v1141q0 47 -2 90t-6 70.5 t-8 49t-6 34t-2 14.5zM348 231q111 -92 254 -92q274 6 275 381q0 199 -65.5 306.5t-186.5 107.5q-147 0 -277 -141v-562z" />
<glyph unicode="q" horiz-adv-x="1159" d="M106 532q0 244 108 397.5t290 153.5q178 0 325 -153q16 78 33 121q10 24 53 24h3h8q61 0 61 -45v-1411q0 -45 -82 -45h-8q-82 0 -82 45v473q-135 -104 -293 -104q-188 0 -302 143t-114 401zM287 520q0 -375 274 -381q143 0 254 92v562q-129 141 -276 141 q-121 0 -186.5 -107.5t-65.5 -306.5z" />
<glyph unicode="r" horiz-adv-x="749" d="M160 1018q0 25 39 36t71 11q10 0 18.5 -4t15.5 -13.5t11 -18.5t8.5 -24.5t7.5 -24.5t6 -26.5t5 -23.5q109 153 238 153q57 0 87.5 -22.5t30.5 -57t-12 -72.5t-29 -38q-8 0 -39.5 11t-72.5 11q-47 0 -94.5 -31.5t-69.5 -62.5l-25 -30v-750q0 -45 -82 -45h-8q-82 0 -82 45 v719q0 47 -2 90t-6 70.5t-8 49t-6 34t-2 14.5z" />
<glyph unicode="s" horiz-adv-x="845" d="M72 111q0 20 25.5 61t45.5 41q2 0 33 -20.5t88.5 -41t120.5 -20.5q201 0 201 166q0 70 -45 111t-160 73q-162 47 -223.5 118t-61.5 189q0 129 95 213t245 84q104 0 187.5 -26.5t83.5 -61.5q0 -27 -24 -68.5t-42 -41.5q-2 0 -25.5 13t-67.5 26.5t-93 13.5 q-78 0 -130.5 -35t-52.5 -94q0 -70 37 -111t123 -67q193 -59 260.5 -127t67.5 -205t-104.5 -228t-258.5 -91q-129 0 -227 44t-98 85z" />
<glyph unicode="t" horiz-adv-x="700" d="M76 985v25q0 61 41 61h102l25 215q4 45 65 45h21q61 0 61 -45v-215h172q41 0 41 -61v-25q0 -61 -41 -61h-172v-637q0 -152 111 -152q35 0 59.5 5t28.5 5q18 0 30.5 -37.5t12.5 -58.5q0 -61 -150 -61q-102 0 -183 62.5t-81 219.5v654h-102q-41 0 -41 61z" />
<glyph unicode="u" horiz-adv-x="1140" d="M154 319v711q0 45 82 45h8q82 0 82 -45v-694q0 -94 54 -146.5t155 -52.5q147 0 258 144v749q0 45 81 45h9q82 0 82 -45v-727q0 -47 2 -90t6 -70.5t8 -49t6 -34t2 -14.5q0 -25 -39 -36t-71 -11q-10 0 -18.5 4t-15.5 14.5t-11.5 19.5t-8.5 25.5t-7 25.5t-6 28.5t-5 25.5 q-136 -153 -318 -153h-2q-156 0 -244.5 88t-88.5 243z" />
<glyph unicode="v" horiz-adv-x="993" d="M43 1040q0 35 88 35h10q72 0 82 -33l209 -653q20 -66 72 -256h8q53 225 61 252l211 657q10 33 84 33h6q76 0 76 -35q0 -10 -6 -28l-330 -983q-10 -33 -82 -33h-71q-72 0 -82 33l-330 985q-6 18 -6 26z" />
<glyph unicode="w" horiz-adv-x="1529" d="M61 1040q0 35 95 35q74 0 82 -33l172 -655q6 -20 51 -233q23 137 51 235l170 651q8 35 80 35h14q70 0 80 -35l172 -651q23 -84 51 -233q37 190 47 229l172 657q8 33 84 33q82 0 82 -35q0 -10 -6 -28l-274 -983q-8 -33 -82 -33h-62q-72 0 -79 33l-164 649q-14 57 -31 160 q-16 -102 -31 -158l-168 -651q-8 -33 -82 -33h-61q-74 0 -82 33l-270 970q-10 31 -11 41z" />
<glyph unicode="x" horiz-adv-x="993" d="M41 31q0 14 16 37l332 481l-307 455q-16 23 -16 36q0 35 94 35h18q68 0 88 -31l195 -292q14 -23 43 -72q29 51 43 72l196 295q17 28 88 28h5h8q86 0 86 -35q0 -14 -17 -36l-309 -451l332 -485q16 -23 16 -37q0 -35 -94 -35h-18q-68 0 -88 31l-217 325q-14 20 -43 72 q-29 -51 -43 -72l-222 -327q-20 -29 -92 -29h-6q-88 0 -88 35z" />
<glyph unicode="y" horiz-adv-x="985" d="M37 1040q0 35 88 35h16q68 0 82 -33l209 -555q33 -90 66 -206h4q61 195 67 206l205 555q10 33 84 33h6q82 0 82 -35q0 -10 -6 -28l-526 -1395q-16 -43 -97 -43h-30q-68 0 -68 33q0 8 10 35l172 415l-358 957q-6 18 -6 26z" />
<glyph unicode="z" horiz-adv-x="1001" d="M76 104q0 12 6 23l600 797h-524q-41 0 -41 61v25q0 61 41 61h719q14 0 27.5 -38t13.5 -68q0 -12 -5 -21l-598 -797h564q41 0 41 -61v-25q0 -61 -41 -61h-758q-12 0 -28.5 37t-16.5 67z" />
<glyph unicode="{" horiz-adv-x="561" d="M41 631v28q0 47 51 70q63 29 84 89.5t21 174.5v342q0 129 51 183.5t108 54.5h103q41 0 41 -60v-8q0 -59 -41 -59h-45q-41 0 -55.5 -30t-14.5 -95v-360q0 -205 -160 -318q25 -12 56.5 -41t67.5 -103.5t36 -168.5v-359q0 -66 14.5 -96.5t55.5 -30.5h45q41 0 41 -59v-8 q0 -59 -41 -60h-103q-57 0 -108 53.5t-51 184.5v342q0 113 -20.5 174t-84.5 90q-51 23 -51 70z" />
<glyph unicode="|" horiz-adv-x="512" d="M197 -242v1774q0 45 49 45h20q49 0 49 -45v-1774q0 -45 -49 -45h-20q-49 0 -49 45z" />
<glyph unicode="}" horiz-adv-x="561" d="M61 -215q0 59 41 59h45q41 0 55.5 31t14.5 96v359q0 94 36 168.5t67.5 103.5t56.5 41q-160 113 -160 318v360q0 66 -14.5 95.5t-55.5 29.5h-45q-41 0 -41 59v8q0 59 41 60h103q57 0 108.5 -54.5t51.5 -183.5v-342q0 -115 20.5 -175t83.5 -89q51 -23 51 -70v-28 q0 -47 -51 -70q-63 -29 -83.5 -90t-20.5 -174v-342q0 -131 -51.5 -184.5t-108.5 -53.5h-103q-41 0 -41 60v8z" />
<glyph unicode="~" horiz-adv-x="1120" d="M145 524q72 142 224 142q74 0 221 -44t201 -44q61 0 106 59q29 39 72 25l18 -7q39 -12 19 -53q-72 -139 -222 -139q-80 0 -227 44t-201 44q-55 0 -102 -62q-27 -37 -70 -24l-22 8q-37 12 -17 51z" />
<glyph unicode="&#xa2;" horiz-adv-x="995" d="M113 541q0 145 36.5 252.5t100 166t138.5 88t163 33.5v80q0 33 41 33t41 -33v-80q102 -4 179 -31.5t77 -60.5q0 -27 -23.5 -68.5t-42.5 -41.5q-2 0 -26.5 11t-69.5 25.5t-94 18.5v-799q55 4 106.5 19.5t80 29t32.5 13.5q20 0 45 -40t25 -65q0 -35 -86 -67.5t-203 -36.5 v-109q0 -33 -41 -33t-41 33v111q-221 12 -329.5 144t-108.5 407zM295 545q0 -201 59.5 -297t196.5 -111v797q-256 -25 -256 -389z" />
<glyph unicode="&#xa3;" horiz-adv-x="1005" d="M68 61v33q0 29 27.5 49.5t60 33.5t60.5 51t28 98v368h-113q-41 0 -41 62v24q0 61 41 62h113v178q0 426 420 426q207 0 206 -66q0 -18 -12 -59t-33 -41q-2 0 -46 9t-83 9q-147 0 -213.5 -64.5t-66.5 -203.5v-188h301q41 0 41 -62v-24q0 -61 -41 -62h-301v-184 q0 -100 -11.5 -171t-32 -108.5t-35.5 -53t-38 -30.5h573q41 0 41 -61v-25q0 -61 -41 -61h-763q-41 0 -41 61z" />
<glyph unicode="&#xa5;" horiz-adv-x="1144" d="M37 1403q0 35 94 35h23q68 0 88 -31l336 -504l344 506q18 29 92 29h14q80 -2 80 -35q0 -8 -16 -37l-338 -500h254q41 0 41 -61v-17q0 -61 -41 -61h-346v-197h346q41 0 41 -61v-16q0 -61 -41 -62h-346v-350q0 -45 -82 -45h-17q-82 0 -82 45v350h-342q-41 0 -41 62v16 q0 61 41 61h342v197h-342q-41 0 -41 61v17q0 61 41 61h254l-340 500q-16 23 -16 37z" />
<glyph unicode="&#xa8;" d="M96 1288v105q0 45 90 45q82 0 82 -45v-105q0 -45 -90 -45q-82 0 -82 45zM391 1288v105q0 45 90 45q82 0 82 -45v-105q0 -45 -90 -45q-82 0 -82 45z" />
<glyph unicode="&#xa9;" horiz-adv-x="1513" d="M20 725q0 305 214.5 517t521.5 212t522 -212t215 -517t-216 -520t-521 -215t-520.5 215t-215.5 520zM119 725q0 -262 187.5 -449.5t449.5 -187.5q264 0 451.5 187.5t187.5 449.5q0 264 -187.5 447.5t-451.5 183.5t-450.5 -183.5t-186.5 -447.5zM395 715q1 436 398 436 q88 0 160.5 -24.5t72.5 -51.5q0 -16 -15.5 -43.5t-27.5 -27.5q-2 0 -25.5 14t-67.5 27.5t-95 13.5q-147 0 -218 -83t-71 -261q0 -176 69.5 -259t212.5 -83q55 0 104.5 15t76 30.5t30.5 15.5q12 0 27.5 -26.5t15.5 -38.5q0 -27 -76.5 -57.5t-177.5 -30.5q-201 0 -297 106.5 t-96 327.5z" />
<glyph unicode="&#xab;" horiz-adv-x="964" d="M90 528.5q0 24.5 27 57.5l266 319q22 25 45 25q20 0 46 -20.5t26 -45.5q0 -18 -17 -41l-227 -295l227 -297q16 -23 17 -38q0 -20 -24.5 -44t-47 -24t-45.5 27l-266 319q-27 33 -27 57.5zM442 528.5q0 24.5 27 57.5l266 319q22 25 45 25q20 0 46 -20.5t26 -45.5 q0 -18 -16 -41l-228 -295l228 -297q16 -23 16 -38q0 -20 -24.5 -44t-47 -24t-45.5 27l-266 319q-27 33 -27 57.5z" />
<glyph unicode="&#xad;" d="M90 532v21q0 61 41 61h387q41 0 41 -61v-21q0 -61 -41 -61h-387q-41 0 -41 61z" />
<glyph unicode="&#xae;" horiz-adv-x="1513" d="M20 725q0 305 214.5 517t521.5 212t522 -212t215 -517t-216 -520t-521 -215t-520.5 215t-215.5 520zM119 725q0 -262 187.5 -449.5t449.5 -187.5q264 0 451.5 187.5t187.5 449.5q0 264 -187.5 447.5t-451.5 183.5t-450.5 -183.5t-186.5 -447.5zM510 324v784q0 37 37 37 h203q291 0 290 -213q0 -150 -139 -205v-4q35 -12 57.5 -47t51.5 -105l94 -237q4 -16 4 -19q0 -18 -51 -18h-13q-39 0 -47 18l-92 238q-27 70 -66.5 94.5t-113.5 24.5h-109v-348q0 -27 -49 -27h-8q-49 0 -49 27zM616 764h160q63 0 108.5 44t45.5 103q0 142 -162 142h-152 v-289z" />
<glyph unicode="&#xb4;" d="M152 1218.5q0 20.5 118 227.5q31 53 127 53q98 0 99 -26q0 -14 -19.5 -39t-95.5 -111q-47 -53 -78 -88q-33 -37 -104 -37q-47 0 -47 20.5z" />
<glyph unicode="&#xb8;" d="M92 -342q0 53 39 53q10 0 67.5 -20.5t102.5 -20.5q117 0 117 72q0 39 -34 57.5t-67.5 28.5t-33.5 33q0 18 39 139h88l-29 -100h8q33 0 66.5 -7.5t70.5 -43t37 -97.5q0 -182 -235 -182q-80 0 -158 24.5t-78 63.5z" />
<glyph unicode="&#xbb;" horiz-adv-x="964" d="M111 193q0 16 16 38l227 297l-227 295q-16 23 -16 41q0 25 25.5 45.5t45.5 20.5q23 0 45 -25l267 -319q27 -33 26.5 -57.5t-26.5 -57.5l-267 -319q-23 -27 -45 -27t-46.5 23.5t-24.5 44.5zM463 193q0 16 16 38l228 297l-228 295q-16 23 -16 41q0 25 26 45.5t46 20.5 q23 0 45 -25l266 -319q27 -33 26.5 -57.5t-26.5 -57.5l-266 -319q-23 -27 -45.5 -27t-47 23.5t-24.5 44.5z" />
<glyph unicode="&#xc4;" horiz-adv-x="1255" d="M25 31q0 10 6 28l485 1346q10 33 82 33h59q72 0 82 -33l486 -1348q6 -14 6 -26q0 -35 -88 -35h-17q-72 0 -82 33l-120 336h-602l-117 -336q-10 -33 -82 -33h-10q-88 0 -88 35zM379 520h489l-215 610q-10 33 -24 119h-4q-16 -82 -31 -119zM395 1651v104q0 45 90 45 q82 0 82 -45v-104q0 -45 -90 -45q-82 0 -82 45zM690 1651v104q0 45 90 45q82 0 82 -45v-104q0 -45 -90 -45q-82 0 -82 45z" />
<glyph unicode="&#xd6;" horiz-adv-x="1497" d="M117 720.5q0 358.5 160.5 542t470 183.5t471 -183.5t161.5 -542t-161.5 -545.5t-470.5 -187q-307 0 -469 187t-162 545.5zM303 721q0 -283 113.5 -430.5t331 -147.5t332 147.5t114.5 430.5q0 281 -114.5 425t-332 144t-331 -144.5t-113.5 -424.5zM516 1651v104 q0 45 90 45q82 0 82 -45v-104q0 -45 -90 -45q-82 0 -82 45zM811 1651v104q0 45 90 45q82 0 82 -45v-104q0 -45 -90 -45q-82 0 -82 45z" />
<glyph unicode="&#xdc;" horiz-adv-x="1458" d="M170 459v934q0 45 82 45h16q82 0 82 -45v-940q0 -135 107.5 -222.5t271.5 -87.5t271.5 87t107.5 223v940q0 45 82 45h16q82 0 82 -45v-934q0 -223 -145.5 -347t-413.5 -124q-270 0 -414.5 124t-144.5 347zM496 1651v104q0 45 90 45q82 0 82 -45v-104q0 -45 -90 -45 q-82 0 -82 45zM791 1651v104q0 45 90 45q82 0 82 -45v-104q0 -45 -91 -45q-82 0 -81 45z" />
<glyph unicode="&#xdf;" horiz-adv-x="1134" d="M184 41v1026q0 168 111 273.5t293 105.5q184 0 294.5 -83t110.5 -265q0 -90 -58 -178.5t-151 -126.5v-7q127 -31 198 -130t71 -234q0 -199 -125 -310.5t-316 -111.5h-65q-41 0 -41 61v25q0 61 41 61h67q111 0 184.5 74t73.5 201q0 125 -73.5 199.5t-184.5 74.5h-67 q-41 0 -41 62v24q0 61 41 62h20q96 0 170 69.5t74 167.5q0 217 -227 217q-104 0 -166 -62t-62 -169v-1026q0 -45 -82 -45h-8q-82 0 -82 45z" />
<glyph unicode="&#xe4;" horiz-adv-x="1116" d="M100 295q0 84 27 147.5t81 102.5t112.5 64.5t145.5 36.5t153.5 15.5t160.5 6.5v96q0 172 -225 172q-82 0 -156.5 -21.5t-116.5 -43t-46 -21.5q-20 0 -46 41t-26 61q0 43 120 87t265 44q190 0 296.5 -85t106.5 -236v-459q0 -47 2 -90t6.5 -70.5t8.5 -49t6 -34t2 -14.5 q0 -25 -39 -36t-72 -11q-10 0 -18 4t-15.5 14.5t-11.5 19.5t-8 25.5t-7 25.5t-6 28.5t-5 25.5q-139 -154 -344 -153q-158 0 -254.5 77.5t-96.5 229.5zM285 305q0 -168 174 -168q100 0 173 37t148 105v241q-76 0 -112.5 -2t-108.5 -7t-109.5 -19.5t-81.5 -37t-63.5 -60.5 t-19.5 -89zM326 1288v105q0 45 90 45q82 0 82 -45v-105q0 -45 -90 -45q-82 0 -82 45zM621 1288v105q0 45 90 45q82 0 82 -45v-105q0 -45 -91 -45q-82 0 -81 45z" />
<glyph unicode="&#xf6;" horiz-adv-x="1165" d="M113 530q0 266 123 409.5t352 143.5q225 0 345 -142t120 -411q0 -266 -118 -404t-347 -138q-231 0 -353 139t-122 403zM293 535q0 -205 69.5 -302.5t219 -97.5t221 97.5t71.5 302t-71.5 303t-221 98.5t-219 -97.5t-69.5 -303.5zM350 1288v105q0 45 90 45q82 0 82 -45 v-105q0 -45 -90 -45q-82 0 -82 45zM645 1288v105q0 45 90 45q82 0 82 -45v-105q0 -45 -90 -45q-82 0 -82 45z" />
<glyph unicode="&#xfc;" horiz-adv-x="1140" d="M154 319v711q0 45 82 45h8q82 0 82 -45v-694q0 -94 54 -146.5t155 -52.5q147 0 258 144v749q0 45 81 45h9q82 0 82 -45v-727q0 -47 2 -90t6 -70.5t8 -49t6 -34t2 -14.5q0 -25 -39 -36t-71 -11q-10 0 -18.5 4t-15.5 14.5t-11.5 19.5t-8.5 25.5t-7 25.5t-6 28.5t-5 25.5 q-137 -154 -320 -153q-156 0 -244.5 88t-88.5 243zM338 1288v105q0 45 90 45q82 0 82 -45v-105q0 -45 -90 -45q-82 0 -82 45zM633 1288v105q0 45 90 45q82 0 82 -45v-105q0 -45 -90 -45q-82 0 -82 45z" />
<glyph unicode="&#x2c6;" d="M74 1208q0 16 12 37l115 180q31 45 94 45h51q63 0 94 -45l117 -180q12 -18 12 -35q0 -31 -49 -30h-4q-39 0 -67 26l-130 152l-124 -152q-29 -27 -70 -26h-4q-47 0 -47 28z" />
<glyph unicode="&#x2da;" d="M156 1327q0 72 50 123t121.5 51t123 -51t51.5 -123t-51.5 -122t-123 -50t-121.5 50t-50 122zM227 1327q0 -43 29 -71.5t72 -28.5t72.5 28.5t29.5 71.5t-29.5 73t-72.5 30t-72 -30t-29 -73z" />
<glyph unicode="&#x2dc;" horiz-adv-x="747" d="M27 1272q61 141 188 141q63 0 187 -44t169 -44q53 0 91 59q27 39 61 25l16 -6q33 -12 15 -53q-61 -139 -187 -140q-68 0 -192.5 44t-169.5 44q-47 0 -86 -61q-14 -23 -25.5 -28t-32.5 3l-20 9q-29 12 -14 51z" />
<glyph unicode="&#x2000;" horiz-adv-x="900" />
<glyph unicode="&#x2001;" horiz-adv-x="1800" />
<glyph unicode="&#x2002;" horiz-adv-x="900" />
<glyph unicode="&#x2003;" horiz-adv-x="1800" />
<glyph unicode="&#x2004;" horiz-adv-x="600" />
<glyph unicode="&#x2005;" horiz-adv-x="450" />
<glyph unicode="&#x2006;" horiz-adv-x="300" />
<glyph unicode="&#x2007;" horiz-adv-x="300" />
<glyph unicode="&#x2008;" horiz-adv-x="225" />
<glyph unicode="&#x2009;" horiz-adv-x="360" />
<glyph unicode="&#x200a;" horiz-adv-x="100" />
<glyph unicode="&#x2010;" d="M90 532v21q0 61 41 61h387q41 0 41 -61v-21q0 -61 -41 -61h-387q-41 0 -41 61z" />
<glyph unicode="&#x2011;" d="M90 532v21q0 61 41 61h387q41 0 41 -61v-21q0 -61 -41 -61h-387q-41 0 -41 61z" />
<glyph unicode="&#x2012;" d="M90 532v21q0 61 41 61h387q41 0 41 -61v-21q0 -61 -41 -61h-387q-41 0 -41 61z" />
<glyph unicode="&#x2013;" horiz-adv-x="1024" d="M0 532v21q0 61 41 61h942q41 0 41 -61v-21q0 -61 -41 -61h-942q-41 0 -41 61z" />
<glyph unicode="&#x2014;" horiz-adv-x="2048" d="M0 532v21q0 61 41 61h1966q41 0 41 -61v-21q0 -61 -41 -61h-1966q-41 0 -41 61z" />
<glyph unicode="&#x2018;" horiz-adv-x="434" d="M119 1112q0 166 75 283.5t136 117.5q59 0 59 -30q0 -12 -18 -49q-70 -133 -70 -314q0 -66 -82 -65h-18q-82 0 -82 57z" />
<glyph unicode="&#x2019;" horiz-adv-x="434" d="M66 1116q0 12 18 49q70 139 70 314q0 66 82 65h18q82 0 82 -57q0 -166 -75 -284t-136 -118q-59 0 -59 31z" />
<glyph unicode="&#x201a;" horiz-adv-x="405" d="M25 -207q0 12 18 49q70 139 70 314q0 66 82 65h18q82 0 82 -57q0 -166 -75 -284t-136 -118q-59 0 -59 31z" />
<glyph unicode="&#x201c;" horiz-adv-x="716" d="M82 1112q0 166 75 283.5t136 117.5q59 0 59 -30q0 -12 -18 -49q-70 -133 -70 -314q0 -66 -82 -65h-18q-82 0 -82 57zM367 1112q0 166 75 283.5t136 117.5q59 0 59 -30q0 -12 -19 -49q-70 -133 -69 -314q0 -66 -82 -65h-18q-82 0 -82 57z" />
<glyph unicode="&#x201d;" horiz-adv-x="716" d="M70 1116q0 12 18 49q70 139 70 314q0 66 82 65h18q82 0 82 -57q0 -166 -75 -284t-136 -118q-59 0 -59 31zM354 1116q0 12 19 49q70 139 69 314q0 66 82 65h19q82 0 82 -57q0 -166 -75 -284t-136 -118q-59 0 -60 31z" />
<glyph unicode="&#x201e;" horiz-adv-x="688" d="M25 -207q0 12 18 49q70 139 70 314q0 66 82 65h18q82 0 82 -57q0 -166 -75 -284t-136 -118q-59 0 -59 31zM309 -207q0 12 19 49q70 139 69 314q0 66 82 65h19q82 0 82 -57q0 -166 -75 -284t-136 -118q-59 0 -60 31z" />
<glyph unicode="&#x2022;" horiz-adv-x="688" d="M86 668q0 109 75 183.5t181 74.5q109 0 183.5 -76t74.5 -182.5t-74.5 -181t-183.5 -74.5t-182.5 74.5t-73.5 181.5z" />
<glyph unicode="&#x2026;" horiz-adv-x="1263" d="M104 41v135q0 45 82 45h35q82 0 82 -45v-135q0 -45 -82 -45h-35q-82 0 -82 45zM532 41v135q0 45 82 45h35q82 0 82 -45v-135q0 -45 -82 -45h-35q-82 0 -82 45zM958 41v135q0 45 82 45h35q82 0 82 -45v-135q0 -45 -82 -45h-35q-82 0 -82 45z" />
<glyph unicode="&#x202f;" horiz-adv-x="360" />
<glyph unicode="&#x2039;" horiz-adv-x="614" d="M94 528.5q0 24.5 27 57.5l266 319q22 25 45 25q20 0 46 -20.5t26 -45.5q0 -18 -17 -41l-227 -295l227 -297q16 -23 17 -38q0 -20 -24.5 -44t-47 -24t-45.5 27l-266 319q-27 33 -27 57.5z" />
<glyph unicode="&#x203a;" horiz-adv-x="614" d="M111 193q0 16 16 38l227 297l-227 295q-16 23 -16 41q0 25 25.5 45.5t45.5 20.5q23 0 45 -25l267 -319q27 -33 26.5 -57.5t-26.5 -57.5l-267 -319q-23 -27 -45 -27t-46.5 23.5t-24.5 44.5z" />
<glyph unicode="&#x205f;" horiz-adv-x="450" />
<glyph unicode="&#x20ac;" horiz-adv-x="1228" d="M0 545v14q0 61 41 62h100q-2 31 -2 96q0 63 2 94h-100q-41 0 -41 61v15q0 61 41 61h117q41 246 195.5 372t394.5 126q131 0 240.5 -42t109.5 -85q0 -27 -25.5 -69t-44.5 -42q-4 0 -39 22.5t-101.5 45t-144.5 22.5q-168 0 -268 -82.5t-135 -267.5h569q41 0 41 -61v-15 q0 -61 -41 -61h-585q-2 -31 -2 -96.5t2 -93.5h585q41 0 41 -62v-14q0 -61 -41 -62h-569q35 -178 137.5 -263t249.5 -85q86 0 162 25.5t119 51.5t47 26q18 0 44.5 -42t26.5 -61q0 -47 -116.5 -97t-266.5 -50q-514 0 -589 495h-113q-41 0 -41 62z" />
<glyph unicode="&#x2122;" horiz-adv-x="1581" d="M61 1380v19q0 35 23 35h541q23 0 22 -35v-19q0 -35 -22 -34h-217v-697q0 -25 -48 -24h-8q-47 0 -47 24v697h-221q-23 0 -23 34zM721 649v762q0 25 45 25h43q37 0 47 -21l219 -379l29 -71l31 65l217 385q14 20 49 21h39q45 0 45 -25v-762q0 -25 -45 -24h-8q-47 0 -48 24 v621h-6l-225 -404q-8 -14 -25 -14h-47q-16 0 -24 14l-230 410h-6v-627q0 -25 -47 -24h-8q-45 0 -45 24z" />
<glyph unicode="&#x25fc;" horiz-adv-x="1075" d="M0 0v1075h1075v-1075h-1075z" />
</font>
</defs>
</svg>
