<?xml version="1.0" standalone="no"?>
<!DOCTYPE svg PUBLIC "-//W3C//DTD SVG 1.1//EN" "http://www.w3.org/Graphics/SVG/1.1/DTD/svg11.dtd" >
<svg xmlns="http://www.w3.org/2000/svg" xmlns:xlink="http://www.w3.org/1999/xlink" version="1.1">
<metadata></metadata>
<defs>
<font id="asapmedium" horiz-adv-x="655" >
<font-face units-per-em="2048" ascent="1638" descent="-410" />
<missing-glyph horiz-adv-x="491" />
<glyph horiz-adv-x="0" />
<glyph horiz-adv-x="682" />
<glyph unicode="&#xd;" horiz-adv-x="681" />
<glyph unicode=" "  horiz-adv-x="491" />
<glyph unicode="&#x09;" horiz-adv-x="491" />
<glyph unicode="&#xa0;" horiz-adv-x="491" />
<glyph unicode="!" horiz-adv-x="602" d="M170 53v170q0 57 109 58h53q109 0 108 -58v-170q0 -57 -108 -57h-53q-109 0 -109 57zM207 498v882q0 57 108 58h70q109 0 109 -54l-86 -886q-4 -31 -22.5 -44.5t-68.5 -13.5h-22q-88 0 -88 58z" />
<glyph unicode="&#x22;" horiz-adv-x="653" d="M61 1364v16q0 57 109 58h20q106 0 107 -58q0 -8 -8 -72.5t-19.5 -158.5t-17.5 -145q-8 -47 -62 -48h-22q-53 0 -62 48zM354 1364v16q0 57 109 58h20q106 0 107 -58q0 -8 -8.5 -72.5t-19.5 -158.5t-17 -145q-8 -47 -62 -48h-22q-53 0 -62 48z" />
<glyph unicode="#" horiz-adv-x="1093" d="M20 471v27q0 88 54 88h151l45 252h-123q-53 0 -53 88v24q0 88 53 88h160l58 310q8 57 104 57h20q80 0 80 -39l-59 -328h211l55 310q8 57 107 57h20q80 0 80 -39l-59 -328h94q53 0 53 -88v-24q0 -88 -53 -88h-131l-45 -252h110q53 0 54 -88v-27q0 -86 -54 -86h-149 l-62 -332q-8 -57 -102 -57h-21q-80 0 -79 43q0 6 61 346h-209l-63 -332q-8 -57 -103 -57h-20q-80 0 -80 43q0 6 61 346h-112q-53 0 -54 86zM428 586h211l47 252h-211z" />
<glyph unicode="$" horiz-adv-x="1015" d="M51 154q0 39 40 98t67 59q10 0 54 -25.5t116.5 -51t148.5 -25.5v407q-55 20 -79.5 30.5t-76 34.5t-78 43t-63.5 54t-54 71t-31.5 86t-14.5 109q0 174 111.5 275.5t285.5 122.5v71q0 52 51 52q53 0 54 -52v-69q125 -4 225 -44t100 -87q0 -39 -32.5 -96.5t-61.5 -57.5 q-2 0 -75.5 30t-155.5 32v-373q55 -23 78.5 -33t73.5 -34.5t76 -44t62.5 -54.5t54 -69.5t31 -84t13.5 -106.5q0 -199 -108.5 -307.5t-280.5 -126.5v-94q0 -51 -50 -52q-55 0 -55 52v92q-184 6 -305 60t-121 108zM340 1059q0 -98 137 -166v317q-137 -31 -137 -151zM582 225 q59 18 95 62.5t36 109.5q0 109 -131 172v-344z" />
<glyph unicode="%" horiz-adv-x="1566" d="M102 1108q0 340 297 340q57 0 105.5 -14.5t94.5 -49t72.5 -105.5t26.5 -171t-26.5 -171t-72.5 -105.5t-94 -49t-106 -14.5q-125 0 -211 75t-86 265zM285 1108q0 -193 114 -193q117 0 117 193q0 188 -117 188q-115 0 -114 -188zM319 16q0 10 11 27l741 1348q27 49 88 49 h62q45 0 45 -25q0 -8 -11 -24l-743 -1348q-25 -51 -86 -51h-61q-45 0 -46 24zM885 326q0 340 297 340q57 0 105 -14.5t94 -49.5t73 -105.5t27 -170.5q0 -340 -299 -340q-297 0 -297 340zM1067 326q0 -193 115 -193q117 0 116 193q1 188 -116 188q-115 0 -115 -188z" />
<glyph unicode="&#x26;" horiz-adv-x="1277" d="M68 418q0 135 66.5 233.5t178.5 134.5v9q-90 39 -144 116.5t-54 184.5q0 166 113.5 259t303.5 93q207 0 207 -78q0 -51 -18.5 -97t-42.5 -46q-2 0 -41 8t-70 8q-102 0 -148 -53t-46 -133q0 -82 61.5 -140.5t171.5 -58.5h211l27 203q6 57 94 57h47q88 0 88 -57v-203h125 q55 0 55 -86v-31q0 -88 -55 -88h-125v-350q0 -113 86 -113q20 0 42 5.5t26 5.5q25 0 40 -52.5t15 -76.5q0 -86 -178 -86q-145 0 -219 84q-158 -84 -357 -84q-197 0 -328.5 112.5t-131.5 319.5zM328 420q0 -115 67.5 -172.5t167.5 -57.5q121 0 254 62v16v385h-225 q-264 0 -264 -233z" />
<glyph unicode="'" horiz-adv-x="374" d="M76 1364v16q0 57 108 58h21q106 0 106 -58q0 -8 -8 -72.5t-19.5 -158.5t-17.5 -145q-8 -47 -61 -48h-23q-53 0 -61 48z" />
<glyph unicode="(" horiz-adv-x="616" d="M106 587.5q0 282.5 87.5 537.5t244.5 450q23 29 51.5 29t62.5 -26t34 -52.5t-13 -42.5q-254 -408 -254 -895.5t254 -894.5q12 -23 13 -41q0 -27 -33 -53.5t-61 -26.5q-31 0 -54 29q-158 195 -245 449.5t-87 537z" />
<glyph unicode=")" horiz-adv-x="616" d="M25 -348q0 18 12 37q256 412 256 899q0 485 -252 895q-14 20 -14 41q0 27 32.5 53.5t63.5 26.5q29 0 51 -29q158 -195 245 -450t87 -537.5t-87 -537.5t-245 -449q-23 -29 -51.5 -29t-63 25.5t-34.5 54.5z" />
<glyph unicode="*" horiz-adv-x="763" d="M70 1206q0 25 13 45.5t36 20.5q6 0 26 -4l174 -56v185q0 53 53.5 53t53.5 -53v-185l172 56q16 4 25 4q18 0 34.5 -17.5t16.5 -48.5q0 -29 -41 -43l-172 -53l129 -178q12 -18 12 -34.5t-20.5 -35t-38.5 -18.5q-23 0 -41 26l-131 183l-131 -183q-20 -27 -41 -26 q-18 0 -40 18.5t-22 34.5q0 14 17 35l125 178l-170 53q-39 14 -39 43z" />
<glyph unicode="+" horiz-adv-x="1146" d="M90 469v14q0 90 53 90h332v334q0 53 86 54h25q86 0 86 -54v-334h334q53 0 53 -88v-14q0 -88 -53 -88h-334v-330q0 -55 -86 -55h-25q-86 0 -86 55v330h-332q-53 0 -53 86z" />
<glyph unicode="," horiz-adv-x="405" d="M-4 -209q0 8 18 59q72 156 72 351q0 80 109 80h30q109 0 109 -78q0 -164 -94.5 -308.5t-163.5 -144.5q-80 0 -80 41z" />
<glyph unicode="-" d="M70 535v16q0 88 53 88h407q53 0 54 -88v-16q0 -86 -54 -86h-407q-53 0 -53 86z" />
<glyph unicode="." horiz-adv-x="405" d="M68 53v170q0 57 108 58h53q109 0 109 -58v-170q0 -57 -109 -57h-53q-109 0 -108 57z" />
<glyph unicode="/" horiz-adv-x="757" d="M-45 -123q0 10 6 29l610 1476q23 55 107 56h33q74 0 73 -35q0 -14 -6 -29l-610 -1476q-23 -57 -105 -58h-34q-74 0 -74 37z" />
<glyph unicode="0" horiz-adv-x="1095" d="M68 717q0 350 130 540.5t347 190.5q219 0 349 -189.5t130 -541.5t-130 -541.5t-349 -189.5q-217 0 -347 190.5t-130 540.5zM328 717q0 -262 59 -394.5t159.5 -132.5t161 132.5t60.5 394.5t-60.5 394t-161 132t-159.5 -132t-59 -394z" />
<glyph unicode="1" horiz-adv-x="1095" d="M78 1292q0 39 47 49l498 99q27 0 51 -14.5t24 -32.5v-1186h250q55 0 56 -88v-31q0 -88 -56 -88h-807q-55 0 -55 88v31q0 88 55 88h303v985l-309 -47q-31 0 -44 48t-13 99z" />
<glyph unicode="2" horiz-adv-x="1095" d="M82 147q0 25 6 33l522 645q100 127 101 234q0 86 -59.5 134t-155.5 48q-66 0 -123.5 -23.5t-93 -47t-48.5 -23.5q-33 0 -64.5 45t-31.5 82q0 76 127 125t266 49q207 0 325 -104.5t118 -276.5q0 -115 -50.5 -212t-199.5 -282l-299 -368h514q55 0 55 -86v-31q0 -88 -55 -88 h-803q-20 0 -35.5 52t-15.5 95z" />
<glyph unicode="3" horiz-adv-x="1095" d="M80 135q0 33 31.5 84t58.5 51q2 0 103.5 -40t203.5 -40q100 0 168 57.5t68 172.5q0 121 -65.5 176t-198.5 55h-62q-53 0 -53 88v31q0 88 53 88h47q115 0 174.5 61.5t59.5 145.5q0 76 -47.5 126t-147.5 50t-180 -32.5t-82 -32.5q-25 0 -56.5 51t-31.5 88q0 59 121 96 t264 37q190 0 304 -95.5t114 -262.5q0 -104 -54.5 -181.5t-144.5 -113.5v-9q113 -37 179.5 -134t66.5 -234q0 -207 -132 -319.5t-329 -112.5q-158 0 -295 40t-137 109z" />
<glyph unicode="4" horiz-adv-x="1095" d="M29 469q0 14 4 23l633 911q25 35 104 35h47q100 0 101 -58v-864h98q55 0 55 -88v-31q0 -88 -55 -88h-98v-256q0 -57 -101 -57h-53q-100 0 -100 57v256h-570q-20 0 -42.5 59.5t-22.5 100.5zM295 516h367v535l-9 2z" />
<glyph unicode="5" horiz-adv-x="1095" d="M84 123q0 33 35 87t61 54q8 0 48 -18.5t107.5 -37t141.5 -18.5q113 0 183.5 64.5t70.5 179.5q0 248 -297 248h-205q-41 0 -55 17.5t-14 56.5l37 604q6 74 79 74h582q55 0 55 -88v-43q0 -76 -55 -76h-424l-22 -340h71q508 0 508 -447q0 -125 -45 -217t-121.5 -142 t-163 -72.5t-182.5 -22.5q-168 0 -281.5 42t-113.5 95z" />
<glyph unicode="6" horiz-adv-x="1095" d="M82 514q0 201 66.5 369t160.5 267t199.5 167.5t176 95.5t99.5 27q41 0 65.5 -54.5t24.5 -93.5q0 -29 -22 -35q-172 -59 -294 -177.5t-173 -276.5q102 57 231 57q154 0 277 -109.5t123 -318.5q0 -215 -136.5 -330.5t-330.5 -115.5q-205 0 -336 132t-131 396zM340 492 q0 -162 59.5 -230.5t151.5 -68.5q82 0 143.5 63t61.5 168q0 113 -58.5 171t-156.5 58q-96 0 -197 -57q-4 -66 -4 -104z" />
<glyph unicode="7" horiz-adv-x="1095" d="M90 1315v31q0 88 53 88h811q14 0 34 -56.5t20 -99.5q0 -12 -4 -25l-564 -1218q-16 -39 -104 -39h-57q-109 0 -109 39q0 8 10 33l539 1159h-576q-53 0 -53 88z" />
<glyph unicode="8" horiz-adv-x="1095" d="M76 412q0 272 215 360q-160 100 -160 301q0 164 114.5 269.5t313.5 105.5q184 0 299 -99.5t115 -254.5q0 -213 -187 -308q233 -106 234 -385q0 -180 -122 -297.5t-345 -117.5q-229 0 -353 116.5t-124 309.5zM334 424q0 -109 58.5 -171.5t156.5 -62.5q94 0 152.5 63.5 t58.5 158.5q0 59 -18.5 102t-63.5 75t-77 46t-101 41q-19 6 -27 10q-139 -94 -139 -262zM385 1079q0 -84 51 -129t152 -84q135 86 135 213q0 78 -48 121t-122 43q-72 0 -120 -42t-48 -122z" />
<glyph unicode="9" horiz-adv-x="1095" d="M78 999q0 215 136 331t331 116q205 0 336 -132t131 -394q0 -170 -47 -316.5t-121 -244t-158 -172t-166 -115.5t-136 -60.5t-77 -19.5q-39 0 -64.5 55t-25.5 92q0 29 25 37q172 59 293.5 177t173.5 278q-106 -57 -232 -58q-154 0 -276.5 109t-122.5 317zM336 1008 q0 -111 60.5 -170.5t156.5 -59.5q94 0 195 58q4 35 4 104q0 162 -59.5 231.5t-151.5 69.5q-82 0 -143.5 -63.5t-61.5 -169.5z" />
<glyph unicode=":" horiz-adv-x="405" d="M68 53v170q0 57 108 58h53q109 0 109 -58v-170q0 -57 -109 -57h-53q-109 0 -108 57zM68 848v170q0 57 108 57h53q109 0 109 -57v-170q0 -57 -109 -57h-53q-109 0 -108 57z" />
<glyph unicode=";" horiz-adv-x="405" d="M-4 -209q0 8 18 59q72 156 72 351q0 80 109 80h30q109 0 109 -78q0 -164 -94.5 -308.5t-163.5 -144.5q-80 0 -80 41zM68 848v170q0 57 108 57h53q109 0 109 -57v-170q0 -57 -109 -57h-53q-109 0 -108 57z" />
<glyph unicode="&#x3c;" horiz-adv-x="1146" d="M80 471v37q0 55 55 82l852 362q19 6 31 6q35 0 35 -73v-31q0 -84 -58 -106l-645 -259l647 -260q57 -23 58 -106v-31q0 -74 -35 -74q-16 0 -31 9l-854 362q-55 23 -55 82z" />
<glyph unicode="=" horiz-adv-x="1146" d="M90 279v16q0 86 62 86h845q61 0 62 -86v-16q0 -86 -62 -86h-845q-61 0 -62 86zM90 637v14q0 88 62 88h845q61 0 62 -88v-14q0 -88 -62 -88h-845q-61 0 -62 88z" />
<glyph unicode="&#x3e;" horiz-adv-x="1146" d="M84 92v31q0 80 57 106l647 258l-647 261q-55 23 -55 106v31q0 71 35 71q12 0 31 -6l852 -362q55 -25 55 -80v-39q0 -55 -55 -80l-854 -364q-14 -6 -31 -7q-35 0 -35 74z" />
<glyph unicode="?" horiz-adv-x="911" d="M78 1300q0 70 118 109t255 39q203 0 319.5 -98.5t116.5 -257.5q0 -84 -37 -157t-91 -126t-109.5 -101.5t-99.5 -104.5t-54 -114q-10 -49 -93 -49h-41q-86 0 -86 56q0 141 152 311q12 14 44 48t45 48.5t35.5 42t33 45t18.5 40t8 40.5q0 150 -190 150q-74 0 -155 -33 t-83 -33q-31 0 -68.5 57.5t-37.5 87.5zM244 53v170q0 57 108 58h54q109 0 108 -58v-170q0 -57 -108 -57h-54q-109 0 -108 57z" />
<glyph unicode="@" horiz-adv-x="1994" d="M172 489q0 403 266.5 681t655.5 278q309 0 495.5 -182.5t186.5 -483.5q0 -281 -132.5 -473t-328.5 -192q-94 0 -152.5 42t-70.5 103q-84 -145 -246 -145q-121 0 -203 92t-82 278q0 244 110.5 397.5t289.5 153.5q127 0 215 -94q14 49 30.5 67.5t63.5 18.5h20q76 0 76 -51 q0 -2 -15.5 -152.5t-31.5 -308.5t-16 -176q0 -78 75 -78q109 0 192 154.5t83 363.5q0 254 -155 409t-404 155q-336 0 -567.5 -249t-231.5 -608q0 -285 150.5 -463t394.5 -178q119 0 214 30t101 30q29 0 29 -60q0 -53 -116 -77.5t-228 -24.5q-297 0 -482.5 206t-185.5 537z M778 502q0 -209 140 -209q110 0 182 168q16 248 41 348q-63 55 -140 55q-223 0 -223 -362z" />
<glyph unicode="A" horiz-adv-x="1255" d="M8 37q0 6 8 35l463 1327q14 39 105 39h88q90 0 104 -39l463 -1329q6 -18 6 -33q0 -41 -96 -41h-64q-92 0 -102 39l-96 280h-527l-94 -280q-14 -39 -90 -39h-57q-111 0 -111 41zM438 545h373l-152 454q-10 29 -28 127h-6q-16 -86 -31 -127z" />
<glyph unicode="B" horiz-adv-x="1214" d="M162 74v1286q0 74 74 74h391q240 0 357.5 -97.5t117.5 -265.5q0 -102 -64.5 -189t-158.5 -122l2 -8q96 -18 188 -110.5t92 -227.5q0 -203 -131 -308.5t-389 -105.5h-405q-74 0 -74 74zM428 227h236q106 0 164.5 53.5t58.5 147.5q0 92 -65.5 141t-190.5 49h-203v-391z M428 846h176q102 0 162.5 52t60.5 132q0 178 -223 178h-176v-362z" />
<glyph unicode="C" horiz-adv-x="1267" d="M100 719q0 729 676 729q147 0 281.5 -41t134.5 -96q0 -39 -40 -102.5t-71 -63.5q-6 0 -43 19.5t-107.5 38t-156.5 18.5q-205 0 -302 -124t-97 -380q0 -504 393 -504q88 0 167 22.5t123 44t52 21.5q35 0 69.5 -61.5t34.5 -92.5q0 -70 -144 -115.5t-302 -45.5 q-342 0 -505 178t-163 555z" />
<glyph unicode="D" horiz-adv-x="1423" d="M162 74v1286q0 74 74 74h442q305 0 476 -180.5t171 -537t-171 -536.5t-476 -180h-442q-74 0 -74 74zM430 227h244q180 0 279.5 123t99.5 367t-99.5 366.5t-279.5 122.5h-244v-979z" />
<glyph unicode="E" horiz-adv-x="1118" d="M162 74v1286q0 74 74 74h737q55 0 55 -88v-52q0 -88 -55 -88h-545v-358h487q53 0 54 -88v-51q0 -88 -54 -88h-487v-394h547q55 0 55 -88v-51q0 -88 -55 -88h-739q-74 0 -74 74z" />
<glyph unicode="F" horiz-adv-x="1030" d="M162 53v1307q0 74 74 74h669q55 0 56 -88v-52q0 -88 -56 -88h-477v-360h455q55 0 55 -88v-51q0 -88 -55 -89h-455v-565q0 -57 -109 -57h-49q-109 0 -108 57z" />
<glyph unicode="G" horiz-adv-x="1376" d="M100 715q0 733 676 733q150 0 286 -41t136 -96q0 -39 -40 -102.5t-71 -63.5q-4 0 -42.5 19.5t-111.5 38t-159 18.5q-209 0 -304 -125t-95 -375q0 -508 389 -508q113 0 197 18v316h-201q-53 0 -53 88v53q0 88 53 88h395q74 0 74 -76v-559q0 -47 -47 -79.5t-124 -48 t-148.5 -21.5t-149.5 -6q-332 0 -496 178t-164 551z" />
<glyph unicode="H" horiz-adv-x="1501" d="M182 53v1327q0 57 109 58h51q109 0 109 -58v-532h620v532q0 57 109 58h51q109 0 108 -58v-1327q0 -57 -108 -57h-51q-109 0 -109 57v565h-620v-565q0 -57 -109 -57h-51q-109 0 -109 57z" />
<glyph unicode="I" horiz-adv-x="577" d="M154 53v1327q0 59 108 60h51q109 0 109 -60v-1327q0 -59 -109 -59h-51q-109 0 -108 59z" />
<glyph unicode="J" horiz-adv-x="823" d="M4 70q0 37 18.5 98t51.5 63q4 0 43 -9t78 -9q113 0 163 54.5t50 172.5v940q0 59 108 60h51q109 0 109 -60v-964q0 -203 -105.5 -316.5t-328.5 -113.5q-238 0 -238 84z" />
<glyph unicode="K" horiz-adv-x="1179" d="M162 53v1327q0 57 108 58h52q109 0 108 -58v-577l8 -2l410 602q25 35 119 35h67q100 0 101 -29q0 -16 -19 -43l-438 -618l512 -682q16 -25 16 -39q0 -31 -106 -31h-84q-96 0 -121 35l-457 635h-8v-613q0 -57 -108 -57h-52q-109 0 -108 57z" />
<glyph unicode="L" horiz-adv-x="991" d="M162 74v1306q0 57 108 58h49q109 0 109 -58v-1153h496q53 0 53 -88v-51q0 -88 -53 -88h-688q-74 0 -74 74z" />
<glyph unicode="M" horiz-adv-x="1726" d="M158 53v1327q0 57 108 58h96q86 0 113 -49l361 -633l28 -66l31 64l362 635q27 49 113 49h92q109 0 109 -58v-1327q0 -57 -109 -57h-43q-109 0 -108 57v940h-6l-338 -596q-23 -35 -68 -35h-68q-45 0 -69 35l-338 600l-8 2v-946q0 -57 -107 -57h-43q-109 0 -108 57z" />
<glyph unicode="N" horiz-adv-x="1472" d="M158 53v1327q0 57 108 58h72q84 0 117 -49l544 -834l58 -94v919q0 57 108 58h43q109 0 109 -58v-1327q0 -57 -109 -57h-63q-82 0 -113 45l-567 864l-49 80v-932q0 -57 -107 -57h-43q-109 0 -108 57z" />
<glyph unicode="O" horiz-adv-x="1497" d="M100 718.5q0 356.5 167 543t480.5 186.5t480.5 -186.5t167 -543t-167 -544.5t-480.5 -188t-480.5 188t-167 544.5zM375 719q0 -248 95 -377t280 -129q182 0 277 129t95 377q0 246 -95 374t-277 128q-184 0 -279.5 -128t-95.5 -374z" />
<glyph unicode="P" horiz-adv-x="1167" d="M154 53v1307q0 74 73 74h426q82 0 153 -15.5t149.5 -57.5t125.5 -134t47 -226q0 -111 -37.5 -193.5t-90 -127.5t-121 -72.5t-116.5 -36t-89 -8.5h-254v-510q0 -57 -109 -57h-49q-109 0 -108 57zM420 793h231q80 0 142.5 46t62.5 162q0 113 -63.5 159t-151.5 46h-221v-413 z" />
<glyph unicode="Q" horiz-adv-x="1497" d="M100 715q0 356 167 544.5t480.5 188.5t480.5 -188.5t167 -544.5q0 -526 -355 -670v-8l346 -119q29 -10 29 -33q0 -35 -31.5 -110.5t-70.5 -75.5q-6 0 -39 12.5t-108.5 41t-158.5 62t-234.5 94t-293.5 116.5q-379 150 -379 690zM375 715q0 -248 96 -379t279 -131 q180 0 276 131t96 379q0 246 -96 376t-276 130q-182 0 -278.5 -130t-96.5 -376z" />
<glyph unicode="R" horiz-adv-x="1249" d="M162 53v1307q0 74 74 74h380q504 0 504 -377q0 -119 -64.5 -205t-174.5 -129v-8q92 -31 161 -213l172 -432q10 -27 11 -35q0 -39 -111 -39h-61q-90 0 -105 39l-160 401q-39 84 -89 117t-152 33h-119v-533q0 -57 -109 -57h-49q-109 0 -108 57zM428 817h221 q82 0 139.5 59.5t57.5 143.5q0 90 -56.5 138t-154.5 48h-207v-389z" />
<glyph unicode="S" horiz-adv-x="1024" d="M55 154q0 39 40 98t67 59q10 0 53 -24.5t114.5 -49t151.5 -24.5q94 0 157.5 44t63.5 134q0 33 -14 61.5t-30.5 47t-55.5 42t-60.5 33t-77.5 33t-75 31.5q-70 31 -115 58.5t-93 73.5t-72.5 115.5t-24.5 160.5q0 193 136 297t337 104q135 0 244.5 -42t109.5 -93 q0 -39 -32.5 -96.5t-61.5 -57.5q-8 0 -40 15.5t-85 31t-119 15.5q-111 0 -164 -44t-53 -114q0 -45 16.5 -78t60.5 -60.5t68.5 -39t96.5 -40t107.5 -45t96 -55t92.5 -78.5t56.5 -105.5t24.5 -145.5q0 -215 -131 -322.5t-328 -107.5t-329 56t-132 112z" />
<glyph unicode="T" horiz-adv-x="1124" d="M25 1294v52q0 88 53 88h966q53 0 54 -88v-52q0 -88 -54 -88h-348v-1153q0 -57 -108 -57h-51q-109 0 -109 57v1153h-350q-53 0 -53 88z" />
<glyph unicode="U" horiz-adv-x="1458" d="M147 471v909q0 57 109 58h49q109 0 109 -58v-897q0 -119 89 -194.5t226 -75.5t226 76t89 194v897q0 57 109 58h49q109 0 109 -58v-909q0 -231 -152.5 -358t-429.5 -127q-279 0 -430.5 127t-151.5 358z" />
<glyph unicode="V" horiz-adv-x="1263" d="M23 1397q0 41 110 41h51q90 0 107 -49l313 -963l23 -84h6l22 84l320 963q16 49 106 49h45q111 0 111 -41q0 -12 -6 -35l-453 -1327q-14 -39 -102 -39h-90q-90 0 -105 39l-450 1329q-8 25 -8 33z" />
<glyph unicode="W" horiz-adv-x="1806" d="M6 1391q0 47 113 47h41q104 0 116 -54l193 -784q8 -29 17.5 -75t20.5 -101t17 -82q14 78 62 260l196 795q10 41 101 41h61q92 0 103 -41l194 -799q10 -43 30.5 -139.5t26.5 -124.5q10 39 31 133t31 133l192 784q12 53 117 54h19q112 0 112 -46q0 -9 -4 -30l-342 -1327 q-8 -39 -100 -39h-127q-92 0 -101 39l-188 753l-37 187l-37 -187l-192 -753q-12 -39 -103 -39h-123q-94 0 -102 39l-334 1327q-4 20 -4 29z" />
<glyph unicode="X" horiz-adv-x="1251" d="M43 80l436 668l-387 606q-20 31 -20 47q0 37 118 37h64q86 0 111 -37l268 -422l278 424q20 35 111 35h55q117 0 117 -37q0 -20 -18 -47l-396 -604l428 -670q18 -27 19 -47q0 -37 -117 -37h-63q-86 0 -111 37l-309 483l-320 -485q-23 -35 -110 -35h-56q-116 0 -116 36 q0 17 18 48z" />
<glyph unicode="Y" horiz-adv-x="1144" d="M6 1399q0 39 117 39h65q86 0 111 -37l281 -461l284 463q25 35 113 35h51q113 0 113 -39q0 -12 -19 -45l-415 -656v-645q0 -57 -109 -57h-49q-109 0 -109 57v652l-415 649q-18 33 -19 45z" />
<glyph unicode="Z" horiz-adv-x="1261" d="M63 156q0 10 5 22l743 1028h-631q-55 0 -55 90v47q0 90 55 91h936q18 0 42 -60.5t24 -99.5q0 -10 -4 -19l-742 -1028h690q53 0 54 -90v-47q0 -90 -54 -90h-993q-23 0 -46.5 57.5t-23.5 98.5z" />
<glyph unicode="[" horiz-adv-x="595" d="M152 -209v1708q0 74 73 74h256q53 0 54 -74v-22q0 -74 -54 -74h-125v-1516h125q53 0 54 -73v-23q0 -74 -54 -74h-256q-74 0 -73 74z" />
<glyph unicode="\" horiz-adv-x="739" d="M6 1401q0 37 74 37h33q84 0 104 -56l514 -1359q6 -14 6 -31q0 -35 -75 -35h-33q-84 0 -105 55l-512 1360q-6 16 -6 29z" />
<glyph unicode="]" horiz-adv-x="595" d="M63 -186q0 74 54 73h125v1516h-125q-53 0 -54 74v22q0 74 54 74h256q74 0 73 -74v-1708q0 -74 -73 -74h-256q-53 0 -54 74v23z" />
<glyph unicode="^" horiz-adv-x="921" d="M86 688q0 14 8 31l260 631q20 53 80 53h55q55 0 80 -53l262 -631q8 -16 9 -31q0 -35 -64 -35h-28q-72 0 -95 56l-192 465l-191 -465q-23 -55 -92 -56h-31q-61 0 -61 35z" />
<glyph unicode="_" horiz-adv-x="1093" d="M-43 -195q0 80 55 80h1069q55 0 56 -80v-14q0 -80 -56 -80h-1069q-55 0 -55 80v14z" />
<glyph unicode="`" d="M125 1475q0 26 115 26q127 0 155 -53q25 -43 49.5 -86t37 -63.5t23.5 -41t15 -29.5t4 -16q0 -27 -57 -26q-96 0 -137 45q-193 213 -199 223t-6 21z" />
<glyph unicode="a" horiz-adv-x="1116" d="M92 287q0 377 621 379v77q0 137 -183 138q-72 0 -137 -18.5t-102 -37t-43 -18.5q-27 0 -60.5 55.5t-33.5 85.5q0 49 115.5 93t273.5 44q215 0 320.5 -89t105.5 -244v-412q0 -86 6 -149.5t12 -94t6 -39.5q0 -29 -67.5 -44t-118.5 -15q-16 0 -28.5 8t-20.5 27.5t-12.5 31 t-9.5 41t-7 33.5q-120 -153 -314 -153h-3q-156 0 -238 80.5t-82 220.5zM350 311q0 -118 127 -118h2q141 0 234 133v159q-170 -2 -266.5 -39.5t-96.5 -134.5z" />
<glyph unicode="b" horiz-adv-x="1165" d="M150 53v1432q0 57 108 57h39q109 0 109 -57v-477q103 77 236 77h3q199 0 312.5 -146t113.5 -402q0 -254 -106.5 -402.5t-282.5 -148.5q-182 0 -293 153q-10 -53 -24 -100q-12 -43 -97 -43h-18q-100 0 -100 57zM406 326q94 -129 206 -129q199 0 199 346q0 334 -221 336 q-104 0 -184 -60v-493z" />
<glyph unicode="c" horiz-adv-x="993" d="M94 532q0 553 512 553q123 0 225.5 -33.5t102.5 -88.5q0 -29 -35 -85.5t-57 -56.5q-4 0 -33 13q-94 47 -195 47q-256 0 -256 -342q0 -180 59.5 -264.5t196.5 -84.5q113 0 211 50q6 2 11.5 4t9.5 4t7 3t5 1q27 0 59.5 -53.5t32.5 -83.5q0 -59 -118.5 -94t-225.5 -35 q-260 0 -386 133t-126 413z" />
<glyph unicode="d" horiz-adv-x="1157" d="M94 537q0 256 114 402t312 146q131 0 240 -77v477q0 57 108 57h39q109 0 109 -57v-1145q0 -86 6 -149.5t12 -94t6 -39.5q0 -29 -67.5 -44t-118.5 -15q-16 0 -28.5 8t-20.5 27.5t-12.5 31t-9.5 41t-7 33.5q-110 -153 -291 -153h-2q-176 0 -282.5 148.5t-106.5 402.5z M354 543q0 -346 197 -346q113 0 209 129v493q-85 60 -185 60q-221 -2 -221 -336z" />
<glyph unicode="e" horiz-adv-x="1103" d="M96 528q0 283 128.5 420t361.5 137q221 0 328.5 -143t107.5 -387q0 -23 -36 -64.5t-56 -41.5h-568q10 -137 76 -198t189 -61q66 0 126 17.5t97 36t43 18.5q27 0 60.5 -53t33.5 -82q0 -59 -122 -100t-247 -41q-522 0 -522 542zM362 631h406q0 119 -46 184.5t-138 65.5 q-193 0 -222 -250z" />
<glyph unicode="f" horiz-adv-x="665" d="M76 952v31q0 88 53 88h53v168q0 166 78 240.5t209 74.5q184 0 184 -88q0 -25 -15 -76t-40 -51q-6 0 -28.5 4.5t-43.5 4.5q-45 0 -66.5 -24t-21.5 -87v-166h131q53 0 54 -88v-31q0 -88 -54 -88h-131v-811q0 -57 -108 -57h-39q-109 0 -109 57v811h-53q-53 0 -53 88z" />
<glyph unicode="g" horiz-adv-x="1118" d="M252 82l2 6q-86 51 -86 160q0 117 121 186q-170 88 -170 299q0 172 115.5 262t310.5 90q82 0 145 -14h344q55 0 56 -88v-31q0 -84 -48 -84q-55 0 -108 9l-2 -7q39 -55 39 -137q0 -170 -111.5 -262t-300.5 -92q-149 0 -149 -85v-1q0 -18 8 -32.5t26.5 -25t38 -17.5t51 -13 t56 -9t64.5 -8.5t67 -9.5q68 -12 117 -27.5t98 -46t74.5 -82t25.5 -122.5q0 -154 -136 -244t-370 -90q-464 0 -464 271q0 171 186 245zM309 -119q0 -112 240 -112h4q235 0 235 117q0 21 -8 37t-28.5 27t-40 18t-56.5 13.5t-64.5 10.5t-78.5 10t-84 10q-119 -45 -119 -131z M358 731q0 -162 186.5 -162t186.5 162q0 86 -51 126t-135 40t-135.5 -40t-51.5 -126z" />
<glyph unicode="h" horiz-adv-x="1157" d="M154 53v1432q0 57 108 57h39q109 0 109 -57v-539q123 139 297 139q145 0 230 -78.5t85 -252.5v-701q0 -57 -109 -57h-39q-109 0 -108 57v666q0 153 -158 153h-2q-70 0 -124 -45t-72 -82v-692q0 -57 -109 -57h-39q-109 0 -108 57z" />
<glyph unicode="i" horiz-adv-x="542" d="M141 1335v150q0 57 109 57h45q109 0 108 -57v-150q0 -57 -108 -57h-45q-109 0 -109 57zM145 53v965q0 57 109 57h39q109 0 108 -57v-965q0 -57 -108 -57h-39q-109 0 -109 57z" />
<glyph unicode="j" horiz-adv-x="565" d="M-53 -344q0 35 18.5 80t42.5 45q6 0 28.5 -4t43.5 -4q88 0 88 110v1135q0 57 106 57h41q106 0 107 -57v-1139q0 -160 -82 -236.5t-203 -76.5q-98 0 -144 19.5t-46 70.5zM164 1335v150q0 57 108 57h45q109 0 109 -57v-150q0 -57 -109 -57h-45q-109 0 -108 57z" />
<glyph unicode="k" horiz-adv-x="1067" d="M156 53v1432q0 57 108 57h39q109 0 109 -57v-850h8l299 405q25 35 119 35h51q100 0 100 -28q0 -18 -20 -41l-320 -422l367 -518q16 -25 16 -39q0 -31 -106 -31h-58q-96 0 -118 35l-330 475h-8v-453q0 -57 -109 -57h-39q-109 0 -108 57z" />
<glyph unicode="l" horiz-adv-x="608" d="M143 299v1186q0 57 109 57h39q109 0 108 -57v-1182q0 -113 86 -113q20 0 42 5.5t26 5.5q25 0 40 -52.5t15 -76.5q0 -86 -178 -86q-131 0 -209 74.5t-78 238.5z" />
<glyph unicode="m" horiz-adv-x="1736" d="M119 1006q0 29 67.5 44t118.5 15q16 0 28.5 -7t20.5 -25.5t12.5 -30t9.5 -38t7 -32.5q124 153 305 153h2q215 0 279 -159q53 68 138 113.5t179 45.5q307 0 307 -331v-701q0 -57 -106 -57h-41q-106 0 -107 57v666q0 153 -147 153h-2q-109 0 -193 -124v-695q0 -57 -108 -57 h-39q-109 0 -109 57v666q0 153 -147 153h-2q-70 0 -122 -45t-71 -82v-692q0 -57 -108 -57h-39q-109 0 -109 57v676q0 84 -6 146.5t-12 92t-6 38.5z" />
<glyph unicode="n" horiz-adv-x="1140" d="M121 1006q0 29 67.5 44t118.5 15q16 0 28.5 -7t21.5 -25.5t12.5 -30t8.5 -38t7 -32.5q55 68 138 110.5t173 42.5q311 0 312 -331v-701q0 -57 -107 -57h-41q-106 0 -106 57v666q0 153 -154 153h-2q-117 0 -197 -127v-692q0 -57 -108 -57h-39q-109 0 -109 57v676 q0 84 -6 146.5t-12 92t-6 38.5z" />
<glyph unicode="o" horiz-adv-x="1165" d="M96 535q0 268 126 409t363.5 141t361.5 -141t124 -409.5t-124 -408.5t-361 -140q-240 0 -365 141t-125 408zM356 537q0 -346 226 -347q227 0 227 347q0 344 -227 344q-225 0 -226 -344z" />
<glyph unicode="p" horiz-adv-x="1173" d="M131 1006q0 29 67.5 44t118.5 15q16 0 28.5 -7t21 -25.5t12.5 -30t9 -38t7 -32.5q111 153 293 153q176 0 282.5 -148.5t106.5 -401.5q0 -256 -113.5 -402.5t-312.5 -146.5q-135 0 -239 77v-428q0 -59 -109 -59h-39q-109 0 -108 59v1094q0 84 -6.5 146.5t-12.5 92t-6 38.5 zM412 252q80 -59 184 -59q221 4 221 335q0 346 -199 346q-113 0 -206 -129v-493z" />
<glyph unicode="q" horiz-adv-x="1159" d="M94 535q0 254 108.5 402t286.5 148q182 0 293 -153q10 55 25 100q12 43 96 43h19q100 0 100 -57v-1383q0 -59 -109 -59h-39q-109 0 -108 59v428q-103 -77 -237 -77h-3q-201 0 -316.5 146.5t-115.5 402.5zM354 528q0 -332 228 -335q100 0 184 59v493q-96 129 -209 129 q-203 0 -203 -346z" />
<glyph unicode="r" horiz-adv-x="749" d="M123 1006q0 29 67.5 44t118.5 15q16 0 28.5 -7t21.5 -25.5t12.5 -30t8.5 -38t7 -32.5q98 153 229 153q61 0 89 -29.5t28 -68.5t-16.5 -94t-38.5 -55q-12 0 -43 9t-60 9q-41 0 -81.5 -23.5t-60 -46t-30.5 -41.5v-692q0 -57 -108 -57h-39q-109 0 -109 57v676q0 84 -6 146.5 t-12 92t-6 38.5z" />
<glyph unicode="s" horiz-adv-x="845" d="M66 119q0 33 34.5 85t59.5 52q2 0 74.5 -33t146.5 -33q147 0 147 115q0 55 -43 86t-143 68q-121 41 -186.5 109.5t-65.5 197.5q0 147 98.5 234t262.5 87q109 0 201.5 -29.5t92.5 -78.5q0 -33 -28.5 -88t-50.5 -55q-6 0 -31 12t-65 23.5t-85 11.5q-135 0 -135 -92 q0 -41 29 -72t57.5 -45.5t93.5 -40.5q16 -6 25 -10q121 -47 177 -113t56 -188q0 -150 -106.5 -244t-282.5 -94q-127 0 -230 41t-103 94z" />
<glyph unicode="t" horiz-adv-x="700" d="M68 952v31q0 88 53 88h59l25 203q10 57 94 57h49q86 0 86 -57v-203h127q55 0 55 -88v-31q0 -88 -55 -88h-127v-561q0 -113 88 -113q18 0 41 5.5t27 5.5q25 0 40 -52.5t15 -76.5q0 -86 -178 -86q-131 0 -209 74.5t-78 238.5v565h-59q-53 0 -53 88z" />
<glyph unicode="u" horiz-adv-x="1140" d="M133 317v701q0 57 109 57h39q109 0 108 -57v-666q0 -153 152 -153h2q115 0 198 127v692q0 57 107 57h41q106 0 106 -57v-678q0 -86 6.5 -149.5t12.5 -94t6 -39.5q0 -29 -66.5 -44t-117.5 -15q-18 0 -30.5 8t-21 27.5t-12.5 30t-10 41t-6 34.5q-53 -68 -136 -110.5 t-174 -42.5q-313 0 -313 331z" />
<glyph unicode="v" horiz-adv-x="993" d="M25 1034q0 41 110 41h47q92 0 103 -39l153 -479q6 -20 64 -250h8q31 158 57 248l154 481q14 39 104 39h35q106 0 107 -41q0 -14 -6 -35l-328 -964q-14 -39 -103 -39h-67q-90 0 -105 39l-325 966q-8 20 -8 33z" />
<glyph unicode="w" horiz-adv-x="1529" d="M45 1028q0 47 115 47q123 0 133 -39l151 -583q6 -18 16.5 -68.5t16.5 -73.5q20 98 35 148l145 575q8 41 101 41h37q88 0 100 -41l145 -583q25 -104 31 -140q6 27 18.5 78t14.5 64l153 583q13 39 107 39q111 0 111 -47q0 -4 -5 -29l-253 -964q-8 -39 -101 -39h-86 q-90 0 -102 39l-140 547q-4 16 -24 114q-20 -96 -25 -114l-137 -547q-8 -39 -100 -39h-86q-90 0 -103 39l-262 958q-6 18 -6 35z" />
<glyph unicode="x" horiz-adv-x="993" d="M20 33q0 14 21 45l317 467l-297 446q-20 35 -20 47q0 37 117 37h49q88 0 110 -37l150 -235q8 -10 37 -58q8 16 37 62l151 233q23 35 115 35h39q115 0 115 -37q0 -14 -21 -45l-303 -446l313 -467q20 -35 21 -47q0 -37 -117 -37h-47q-90 0 -113 37l-168 260l-32 53 q-10 -16 -33 -53l-172 -262q-23 -35 -113 -35h-41q-115 0 -115 37z" />
<glyph unicode="y" horiz-adv-x="985" d="M27 1034q0 41 110 41h49q88 0 103 -39l153 -442q25 -84 60 -234h6q6 27 19.5 79.5t23.5 91t18 63.5l152 442q14 39 104 39h33q109 0 109 -41q0 -14 -6 -35l-492 -1380q-16 -43 -107 -43h-34q-102 0 -103 39q0 14 11 37l143 368l-344 981q-8 20 -8 33z" />
<glyph unicode="z" horiz-adv-x="1001" d="M63 137q0 18 7 27l516 700h-432q-55 0 -56 88v31q0 88 56 88h723q14 0 32.5 -50t18.5 -89q0 -14 -4 -27l-514 -698h471q53 0 53 -88v-31q0 -88 -53 -88h-764q-16 0 -35 49t-19 88z" />
<glyph unicode="{" horiz-adv-x="561" d="M39 633v24q0 59 57 93q55 25 77 81t22 160v344q0 113 55 175.5t131 62.5h88q55 0 55 -74v-20q0 -74 -49 -74h-14q-63 0 -64 -92v-355q0 -117 -43 -197.5t-102 -115.5q59 -33 102 -114.5t43 -198.5v-352q0 -94 58 -95h18q51 0 51 -73v-21q0 -74 -55 -74h-88 q-78 0 -132 61.5t-54 176.5v344q0 104 -21.5 160.5t-77.5 81.5q-57 33 -57 92z" />
<glyph unicode="|" horiz-adv-x="512" d="M160 -229v1749q0 55 84 55h26q82 0 82 -55v-1749q0 -55 -82 -56h-26q-84 0 -84 56z" />
<glyph unicode="}" horiz-adv-x="561" d="M47 -188q0 74 51 73h19q55 0 55 95v352q0 117 44 197.5t103 115.5q-59 35 -103 116t-44 197v355q0 49 -12.5 70.5t-46.5 21.5h-19q-47 0 -47 74v20q0 74 53 74h88q78 0 133.5 -62.5t55.5 -175.5v-344q0 -104 21.5 -160.5t76.5 -80.5q57 -33 57 -93v-24q0 -59 -57 -92 q-55 -25 -76.5 -81.5t-21.5 -160.5v-344q0 -115 -55.5 -176.5t-133.5 -61.5h-88q-53 0 -53 74v21z" />
<glyph unicode="~" horiz-adv-x="1120" d="M125 528q66 144 250 144q55 0 190 -35t178 -37q51 0 91 43q37 41 88 29l24 -6q66 -16 37 -72q-66 -143 -248 -143q-55 0 -192 34.5t-181 34.5q-49 0 -88 -43q-39 -41 -88 -28l-24 8q-61 14 -37 71z" />
<glyph unicode="&#xa2;" horiz-adv-x="995" d="M96 532q0 522 447 551v66q0 51 51 51q53 0 53 -51v-66q109 -6 191 -39.5t82 -80.5q0 -29 -35 -85.5t-58 -56.5q-6 0 -30.5 12.5t-64.5 26.5t-85 19v-686q49 4 94 19t71 27.5t32 12.5q27 0 59.5 -53.5t32.5 -83.5q0 -51 -88 -85t-201 -42v-94q0 -51 -49 -52q-55 0 -55 52 v94q-227 12 -337 145t-110 399zM358 539q0 -158 44 -240t143 -102v675q-186 -37 -187 -333z" />
<glyph unicode="&#xa3;" horiz-adv-x="1005" d="M47 74v37q0 29 25.5 52t56.5 40.5t56.5 54.5t25.5 88v311h-84q-55 0 -55 88v31q0 88 55 88h84v162q0 422 453 422q217 0 217 -82q0 -39 -22.5 -87t-45.5 -48q-4 0 -22.5 5t-49 9t-59.5 4q-113 0 -167 -51t-54 -162v-172h252q53 0 53 -88v-31q0 -88 -53 -88h-252v-145 q0 -223 -94 -305h497q55 0 56 -88v-31q0 -88 -56 -88h-749q-68 0 -68 74z" />
<glyph unicode="&#xa5;" horiz-adv-x="1144" d="M6 1399q0 39 117 39h65q86 0 111 -37l281 -461l284 463q25 35 113 35h51q113 0 113 -39q0 -12 -19 -45l-321 -506h200q53 0 54 -62v-24q0 -63 -54 -64h-294v-153h294q53 0 54 -62v-24q0 -61 -54 -62h-294v-344q0 -57 -109 -57h-49q-109 0 -109 57v344h-299q-53 0 -53 62 v24q0 61 53 62h299v155h-299q-53 0 -53 62v24q0 61 53 62h207l-323 506q-18 33 -19 45z" />
<glyph unicode="&#xa8;" d="M49 1264v116q0 58 111 58q109 0 108 -58v-116q0 -57 -110 -58q-109 0 -109 58zM391 1264v116q0 58 111 58q109 0 108 -58v-116q0 -57 -110 -58q-109 0 -109 58z" />
<glyph unicode="&#xa9;" horiz-adv-x="1513" d="M20 719q0 305 214.5 519t519.5 214t520 -214t215 -519t-215 -519t-520 -214q-303 0 -518.5 214t-215.5 519zM139 719q0 -254 180.5 -434.5t434.5 -180.5t435 180.5t181 434.5t-180 434t-436 180q-254 0 -434.5 -180t-180.5 -434zM401 721q0 418 387 418q84 0 161 -24.5 t77 -55.5q0 -20 -22.5 -57t-40.5 -37q-2 0 -23.5 11t-61.5 21.5t-90 10.5q-231 0 -231 -287q0 -293 227 -293q51 0 95.5 13.5t70 26.5t29.5 13q20 0 39.5 -35.5t19.5 -52.5q0 -39 -82 -65.5t-172 -26.5q-197 0 -290 102.5t-93 317.5z" />
<glyph unicode="&#xab;" horiz-adv-x="964" d="M67.5 528.5q0.5 40.5 30.5 77.5l262 316q23 28 51.5 28t65.5 -28.5t37 -59.5q0 -18 -16 -45l-228 -289l228 -290q16 -23 16 -43q0 -27 -36 -59t-66 -32q-27 0 -52 31l-262 316q-31 37 -30.5 77.5zM454.5 528.5q0.5 40.5 30.5 77.5l263 316q22 28 50.5 28t65.5 -28.5 t37 -59.5q0 -18 -16 -45l-228 -289l228 -290q16 -23 16 -43q0 -27 -36 -59t-66 -32q-27 0 -51 31l-263 316q-31 37 -30.5 77.5z" />
<glyph unicode="&#xad;" d="M70 535v16q0 88 53 88h407q53 0 54 -88v-16q0 -86 -54 -86h-407q-53 0 -53 86z" />
<glyph unicode="&#xae;" horiz-adv-x="1513" d="M20 719q0 305 214.5 519t519.5 214t520 -214t215 -519t-215 -519t-520 -214q-303 0 -518.5 214t-215.5 519zM139 719q0 -254 180.5 -434.5t434.5 -180.5t435 180.5t181 434.5t-180 434t-436 180q-254 0 -434.5 -180t-180.5 -434zM500 344v743q0 43 43 43h215 q287 0 286 -215q0 -135 -137 -190v-6q53 -20 94 -119l99 -246q4 -20 4 -22q0 -20 -62 -21h-34q-51 0 -60 23l-90 227q-23 49 -51.5 68.5t-87.5 19.5h-68v-305q0 -33 -63 -33h-27q-61 0 -61 33zM651 778h127q45 0 79 35t34 82q0 51 -33 78.5t-88 27.5h-119v-223z" />
<glyph unicode="&#xb4;" d="M125 1212q0 12 127 236q33 53 158 53q115 0 114 -26q0 -14 -13 -29.5t-87 -97.5q-61 -68 -107 -117q-41 -45 -135 -45q-57 0 -57 26z" />
<glyph unicode="&#xb8;" d="M72 -336q0 37 18.5 57.5t36.5 20.5q16 0 75.5 -21.5t104.5 -21.5q74 0 74 49q0 35 -58.5 57.5t-58.5 47.5q0 18 45 159h119l-27 -94q66 -6 117 -42t51 -112q0 -197 -241 -196q-90 0 -173 26.5t-83 69.5z" />
<glyph unicode="&#xbb;" horiz-adv-x="964" d="M94 195q0 23 19 43l225 290l-225 289q-18 25 -19 45q0 31 38 59.5t65 28.5q29 0 51 -28l264 -316q29 -37 29 -78t-29 -77l-264 -316q-25 -31 -51 -31q-31 0 -67 32t-36 59zM483 195q0 23 19 43l225 290l-225 289q-18 25 -19 45q0 31 38 59.5t65 28.5q29 0 51 -28 l264 -316q29 -37 29 -78t-29 -77l-264 -316q-25 -31 -51 -31q-31 0 -67 32t-36 59z" />
<glyph unicode="&#xc4;" horiz-adv-x="1255" d="M8 37q0 6 8 35l463 1327q14 39 105 39h88q90 0 104 -39l463 -1329q6 -18 6 -33q0 -41 -96 -41h-64q-92 0 -102 39l-96 280h-527l-94 -280q-14 -39 -90 -39h-57q-111 0 -111 41zM348 1626v117q0 57 111 57q109 0 108 -57v-117q0 -57 -110 -57q-109 0 -109 57zM438 545h373 l-152 454q-10 29 -28 127h-6q-16 -86 -31 -127zM690 1626v117q0 57 111 57q109 0 108 -57v-117q0 -57 -110 -57q-109 0 -109 57z" />
<glyph unicode="&#xd6;" horiz-adv-x="1497" d="M100 718.5q0 356.5 167 543t480.5 186.5t480.5 -186.5t167 -543t-167 -544.5t-480.5 -188t-480.5 188t-167 544.5zM375 719q0 -248 95 -377t280 -129q182 0 277 129t95 377q0 246 -95 374t-277 128q-184 0 -279.5 -128t-95.5 -374zM469 1626v117q0 57 111 57 q109 0 108 -57v-117q0 -57 -110 -57q-109 0 -109 57zM811 1626v117q0 57 111 57q109 0 108 -57v-117q0 -57 -110 -57q-109 0 -109 57z" />
<glyph unicode="&#xdc;" horiz-adv-x="1458" d="M147 471v909q0 57 109 58h49q109 0 109 -58v-897q0 -119 89 -194.5t226 -75.5t226 76t89 194v897q0 57 109 58h49q109 0 109 -58v-909q0 -231 -152.5 -358t-429.5 -127q-279 0 -430.5 127t-151.5 358zM449 1626v117q-1 57 110 57q109 0 109 -57v-117q0 -57 -111 -57 q-109 0 -108 57zM791 1626v117q-1 57 110 57q109 0 109 -57v-117q0 -57 -111 -57q-109 0 -108 57z" />
<glyph unicode="&#xdf;" horiz-adv-x="1134" d="M143 53v973q0 190 123 306t322 116q193 0 314.5 -92t121.5 -266q0 -98 -52 -179.5t-145 -117.5v-9q250 -82 250 -356q0 -193 -128 -310.5t-337 -117.5h-53q-53 0 -53 88v31q0 88 53 88h43q94 0 154.5 60.5t60.5 160.5q0 104 -63.5 167.5t-167.5 63.5h-27q-53 0 -53 86v31 q0 88 49 88h12q82 0 138.5 56.5t56.5 138.5q0 78 -48 126t-130 48q-86 0 -135.5 -52.5t-49.5 -138.5v-989q0 -57 -108 -57h-39q-109 0 -109 57z" />
<glyph unicode="&#xe4;" horiz-adv-x="1116" d="M92 287q0 377 621 379v77q0 137 -183 138q-72 0 -137 -18.5t-102 -37t-43 -18.5q-27 0 -60.5 55.5t-33.5 85.5q0 49 115.5 93t273.5 44q215 0 320.5 -89t105.5 -244v-412q0 -86 6 -149.5t12 -94t6 -39.5q0 -29 -67.5 -44t-118.5 -15q-16 0 -28.5 8t-20.5 27.5t-12.5 31 t-9.5 41t-7 33.5q-121 -154 -317 -153q-156 0 -238 80.5t-82 220.5zM279 1264v116q-1 58 110 58q109 0 109 -58v-116q0 -57 -111 -58q-109 0 -108 58zM350 311q0 -119 129 -118q141 0 234 133v159q-170 -2 -266.5 -39.5t-96.5 -134.5zM621 1264v116q-1 58 110 58 q109 0 109 -58v-116q0 -57 -111 -58q-109 0 -108 58z" />
<glyph unicode="&#xf6;" horiz-adv-x="1165" d="M96 535q0 268 126 409t363.5 141t361.5 -141t124 -409.5t-124 -408.5t-361 -140q-240 0 -365 141t-125 408zM303 1264v116q0 58 111 58q109 0 108 -58v-116q0 -57 -110 -58q-109 0 -109 58zM356 537q0 -346 226 -347q227 0 227 347q0 344 -227 344q-225 0 -226 -344z M645 1264v116q0 58 111 58q109 0 108 -58v-116q0 -57 -110 -58q-109 0 -109 58z" />
<glyph unicode="&#xfc;" horiz-adv-x="1140" d="M133 317v701q0 57 109 57h39q109 0 108 -57v-666q0 -154 154 -153q115 0 198 127v692q0 57 107 57h41q106 0 106 -57v-678q0 -86 6.5 -149.5t12.5 -94t6 -39.5q0 -29 -66.5 -44t-117.5 -15q-18 0 -30.5 8t-21 27.5t-12.5 30t-10 41t-6 34.5q-53 -68 -136 -110.5 t-174 -42.5q-313 0 -313 331zM291 1264v116q-1 58 110 58q109 0 109 -58v-116q0 -57 -111 -58q-109 0 -108 58zM633 1264v116q-1 58 110 58q109 0 109 -58v-116q0 -57 -111 -58q-109 0 -108 58z" />
<glyph unicode="&#x2c6;" d="M51 1198q0 14 12 33l127 199q25 41 113 40h33q88 0 115 -40l127 -199q12 -18 12 -33q0 -25 -43 -24h-31q-82 0 -113 40l-84 109l-81 -106q-33 -43 -113 -43h-31q-43 0 -43 24z" />
<glyph unicode="&#x2da;" d="M135 1329q0 80 55.5 136.5t137.5 56.5q80 0 136 -56.5t56 -136.5q0 -82 -56 -137t-136 -55q-82 0 -137.5 55t-55.5 137zM244 1327q0 -35 24.5 -59.5t59 -24.5t59.5 24.5t25 59.5t-25 60.5t-59.5 25.5t-59 -25.5t-24.5 -60.5z" />
<glyph unicode="&#x2dc;" horiz-adv-x="747" d="M2 1276q59 143 211 143q47 0 163 -34.5t150 -36.5q43 0 76 43q33 41 76 28l20 -6q55 -16 31 -72q-55 -143 -209 -143q-49 0 -163.5 35t-151.5 35q-43 0 -76 -43q-31 -41 -74 -29l-22 8q-51 16 -31 72z" />
<glyph unicode="&#x2000;" horiz-adv-x="900" />
<glyph unicode="&#x2001;" horiz-adv-x="1800" />
<glyph unicode="&#x2002;" horiz-adv-x="900" />
<glyph unicode="&#x2003;" horiz-adv-x="1800" />
<glyph unicode="&#x2004;" horiz-adv-x="600" />
<glyph unicode="&#x2005;" horiz-adv-x="450" />
<glyph unicode="&#x2006;" horiz-adv-x="300" />
<glyph unicode="&#x2007;" horiz-adv-x="300" />
<glyph unicode="&#x2008;" horiz-adv-x="225" />
<glyph unicode="&#x2009;" horiz-adv-x="360" />
<glyph unicode="&#x200a;" horiz-adv-x="100" />
<glyph unicode="&#x2010;" d="M70 535v16q0 88 53 88h407q53 0 54 -88v-16q0 -86 -54 -86h-407q-53 0 -53 86z" />
<glyph unicode="&#x2011;" d="M70 535v16q0 88 53 88h407q53 0 54 -88v-16q0 -86 -54 -86h-407q-53 0 -53 86z" />
<glyph unicode="&#x2012;" d="M70 535v16q0 88 53 88h407q53 0 54 -88v-16q0 -86 -54 -86h-407q-53 0 -53 86z" />
<glyph unicode="&#x2013;" horiz-adv-x="1024" d="M0 535v16q0 88 53 88h918q53 0 53 -88v-16q0 -86 -53 -86h-918q-53 0 -53 86z" />
<glyph unicode="&#x2014;" horiz-adv-x="2048" d="M0 535v16q0 88 53 88h1942q53 0 53 -88v-16q0 -86 -53 -86h-1942q-53 0 -53 86z" />
<glyph unicode="&#x2018;" horiz-adv-x="434" d="M57 1085q0 164 93 307.5t163 143.5q80 0 80 -39q0 -18 -14 -51q-74 -170 -74 -359q0 -82 -108 -81h-31q-53 0 -81 22.5t-28 56.5z" />
<glyph unicode="&#x2019;" horiz-adv-x="434" d="M49 1057q0 12 17 57q74 166 73 352q0 82 107 82h33q106 0 106 -78q0 -164 -93 -308t-163 -144q-80 0 -80 39z" />
<glyph unicode="&#x201a;" horiz-adv-x="405" d="M23 -209q0 8 18 59q72 156 72 351q0 80 108 80h31q109 0 108 -78q0 -164 -94 -308.5t-164 -144.5q-80 0 -79 41z" />
<glyph unicode="&#x201c;" horiz-adv-x="716" d="M18 1085q0 164 93 307.5t163 143.5q80 0 80 -39q0 -18 -14 -51q-74 -170 -74 -359q0 -82 -108 -81h-31q-53 0 -81 22.5t-28 56.5zM352 1085q0 164 93 307.5t163 143.5q80 0 80 -39q0 -18 -14 -51q-74 -170 -74 -359q0 -82 -108 -81h-31q-53 0 -81 22.5t-28 56.5z" />
<glyph unicode="&#x201d;" horiz-adv-x="716" d="M27 1057q0 12 16 57q74 166 74 352q0 82 106 82h33q106 0 106 -78q0 -164 -93 -308t-163 -144q-80 0 -79 39zM360 1057q0 12 17 57q74 166 74 352q0 82 106 82h33q106 0 106 -78q0 -164 -93 -308t-163 -144q-80 0 -80 39z" />
<glyph unicode="&#x201e;" horiz-adv-x="688" d="M-2 -209q0 8 18 59q72 156 72 351q0 80 109 80h30q109 0 109 -78q0 -164 -94.5 -308.5t-163.5 -144.5q-80 0 -80 41zM332 -209q0 8 18 59q72 156 72 351q0 80 108 80h31q109 0 109 -78q0 -164 -94.5 -308.5t-163.5 -144.5q-80 0 -80 41z" />
<glyph unicode="&#x2022;" horiz-adv-x="688" d="M78 667.5q0 110.5 77.5 188.5t186.5 78q111 0 189.5 -78t78.5 -188.5t-78.5 -187.5t-189.5 -77q-109 0 -186.5 77t-77.5 187.5z" />
<glyph unicode="&#x2026;" horiz-adv-x="1263" d="M70 53v170q0 57 108 58h53q109 0 109 -58v-170q0 -57 -109 -57h-53q-109 0 -108 57zM498 53v170q0 57 108 58h53q109 0 109 -58v-170q0 -57 -109 -57h-53q-109 0 -108 57zM928 53v170q0 57 108 58h54q109 0 108 -58v-170q0 -57 -108 -57h-54q-109 0 -108 57z" />
<glyph unicode="&#x202f;" horiz-adv-x="360" />
<glyph unicode="&#x2039;" horiz-adv-x="614" d="M69.5 528.5q0.5 40.5 30.5 77.5l262 316q23 28 51.5 28t65.5 -28.5t37 -59.5q0 -18 -16 -45l-228 -289l228 -290q16 -23 16 -43q0 -27 -36 -59t-66 -32q-27 0 -52 31l-262 316q-31 37 -30.5 77.5z" />
<glyph unicode="&#x203a;" horiz-adv-x="614" d="M92 195q0 23 19 43l225 290l-225 289q-18 25 -19 45q0 31 38 59.5t65 28.5q29 0 51 -28l264 -316q29 -37 29 -78t-29 -77l-264 -316q-25 -31 -51 -31q-31 0 -67 32t-36 59z" />
<glyph unicode="&#x205f;" horiz-adv-x="450" />
<glyph unicode="&#x20ac;" horiz-adv-x="1228" d="M0 547v14q0 66 53 66h76q-2 31 -2 92q0 51 2 76h-76q-53 0 -53 67v15q0 66 53 65h90q87 506 611 506q133 0 252.5 -41t119.5 -96q0 -37 -39.5 -99.5t-70.5 -62.5q-4 0 -37 18.5t-94.5 37t-136.5 18.5q-268 0 -330 -281h518q55 0 55 -65v-15q0 -68 -55 -67h-539 q-2 -25 -2 -78q0 -61 2 -90h539q55 0 55 -66v-14q0 -68 -55 -68h-516q66 -270 319 -270q78 0 148.5 22.5t111.5 45t48 22.5q35 0 68.5 -60.5t33.5 -91.5q0 -70 -131 -115.5t-273 -45.5q-522 0 -602 493h-90q-53 0 -53 68z" />
<glyph unicode="&#x2122;" horiz-adv-x="1581" d="M53 1354v30q0 49 31 50h543q31 0 30 -50v-30q0 -49 -30 -49h-195v-648q0 -33 -61 -32h-29q-61 0 -61 32v648h-197q-31 0 -31 49zM713 657v746q0 33 61 33h53q49 0 64 -27l184 -324l35 -69l33 63l188 330q18 27 64 27h53q59 0 59 -33v-746q0 -33 -59 -32h-25q-61 0 -61 32 v529l-6 4l-189 -340q-8 -18 -37 -19h-38q-29 0 -37 19l-191 342l-6 -4v-531q0 -33 -61 -32h-23q-61 0 -61 32z" />
<glyph unicode="&#x25fc;" horiz-adv-x="1075" d="M0 0v1075h1075v-1075h-1075z" />
</font>
</defs>
</svg>
